<svg width="24" height="24" viewBox="0 0 24 24" fill="none" xmlns="http://www.w3.org/2000/svg">
<path d="M19.2333 22.6075C18.9793 22.6075 18.742 22.5511 18.5213 22.4385C18.3007 22.3258 18.1177 22.1715 17.9723 21.9755C15.892 21.6368 14.066 20.7627 12.4943 19.3532C10.9228 17.9439 9.80483 16.1732 9.14033 14.0412C7.57616 14.7952 6.34633 15.8875 5.45083 17.318C4.55533 18.7483 4.10758 20.3448 4.10758 22.1075H1.89258C1.89258 19.8225 2.49608 17.7593 3.70308 15.918C4.91008 14.0766 6.54858 12.7126 8.61858 11.826C8.28058 9.89746 8.26433 8.16137 8.56983 6.61771C8.8755 5.07404 9.503 3.80921 10.4523 2.82321C10.4777 2.39137 10.6439 2.02504 10.9511 1.72421C11.2584 1.42321 11.628 1.27271 12.0598 1.27271C12.5045 1.27271 12.8836 1.42954 13.1971 1.74321C13.5107 2.05671 13.6676 2.43579 13.6676 2.88046C13.6676 3.32096 13.5157 3.69704 13.2121 4.00871C12.9084 4.32021 12.5363 4.47996 12.0958 4.48796H12.0196C11.9942 4.48796 11.9626 4.48162 11.9246 4.46896C11.5659 4.88562 11.2802 5.37321 11.0676 5.93171C10.8547 6.49021 10.7091 7.10662 10.6306 7.78096C10.9797 7.47146 11.3802 7.20687 11.8318 6.98721C12.2835 6.76737 12.78 6.59679 13.3213 6.47546C13.8333 6.35412 14.3768 6.27862 14.9518 6.24896C15.5268 6.21912 16.0871 6.23321 16.6326 6.29121C16.7779 6.15387 16.9399 6.05304 17.1186 5.98871C17.2972 5.92454 17.4842 5.89246 17.6793 5.89246C18.124 5.89246 18.5031 6.04921 18.8166 6.36271C19.1302 6.67637 19.2871 7.05546 19.2871 7.49996C19.2871 7.94446 19.1302 8.32354 18.8166 8.63721C18.5031 8.95071 18.124 9.10746 17.6793 9.10746C17.4382 9.10746 17.2031 9.05429 16.9741 8.94796C16.7451 8.84162 16.5579 8.69046 16.4126 8.49446C15.8426 8.45712 15.3134 8.45537 14.8251 8.48921C14.3367 8.52287 13.8945 8.60037 13.4983 8.72171C12.8523 8.91837 12.3379 9.21112 11.9551 9.59996C11.5721 9.98879 11.3226 10.4863 11.2066 11.0925C11.6812 11.0091 12.103 10.954 12.4718 10.927C12.8407 10.9 13.5073 10.8904 14.4718 10.8982C14.6172 10.7315 14.7887 10.6056 14.9863 10.5205C15.1838 10.4351 15.3949 10.3925 15.6196 10.3925C16.0642 10.3925 16.4433 10.5492 16.7568 10.8627C17.0705 11.1764 17.2273 11.5555 17.2273 12C17.2273 12.4445 17.0705 12.8235 16.7568 13.1372C16.4433 13.4507 16.0642 13.6075 15.6196 13.6075C15.3989 13.6075 15.1897 13.5658 14.9921 13.4825C14.7946 13.3991 14.6232 13.2761 14.4778 13.1135C13.5673 13.1056 12.9334 13.1142 12.5761 13.1392C12.2189 13.1642 11.83 13.2184 11.4093 13.3017C11.6538 13.8165 12.0937 14.206 12.7291 14.47C13.3644 14.7341 14.1765 14.873 15.1653 14.8865C15.6247 14.9038 16.1196 14.8875 16.6501 14.8375C17.1806 14.7875 17.7192 14.7145 18.2658 14.6185C18.4112 14.3851 18.6045 14.2028 18.8458 14.0715C19.087 13.9401 19.3449 13.8745 19.6196 13.8745C20.0642 13.8745 20.4433 14.0312 20.7568 14.3447C21.0705 14.6584 21.2273 15.0375 21.2273 15.482C21.2273 15.9266 21.0705 16.3057 20.7568 16.6192C20.4433 16.9329 20.0642 17.0897 19.6196 17.0897C19.4489 17.0897 19.2897 17.0647 19.1421 17.0147C18.9946 16.9647 18.8522 16.8917 18.7148 16.7957C18.1482 16.8917 17.6029 16.9689 17.0791 17.0272C16.5554 17.0855 16.0618 17.1187 15.5983 17.1267C15.151 17.1345 14.7236 17.1185 14.3161 17.0785C13.9087 17.0385 13.5233 16.9765 13.1598 16.8925C13.7932 17.6533 14.5481 18.288 15.4246 18.7965C16.3011 19.305 17.2213 19.6389 18.1853 19.7982C18.3307 19.6649 18.4928 19.564 18.6718 19.4955C18.8508 19.4268 19.038 19.3925 19.2333 19.3925C19.6778 19.3925 20.0569 19.5492 20.3706 19.8627C20.6841 20.1764 20.8408 20.5555 20.8408 21C20.8408 21.4445 20.6841 21.8235 20.3706 22.1372C20.0569 22.4507 19.6778 22.6075 19.2333 22.6075Z" fill="#222836"/>
</svg>
