<svg width="22" height="22" viewBox="0 0 22 22" fill="none" xmlns="http://www.w3.org/2000/svg">
<g id="Frame">
<path id="Vector" d="M10.9904 19.4361C8.83093 19.4361 6.94993 18.7198 5.34745 17.2872C3.74496 15.8546 2.83097 14.0644 2.60547 11.9165H4.73122C4.94877 13.487 5.64987 14.7854 6.83451 15.8116C8.0193 16.8377 9.40461 17.3507 10.9904 17.3507C12.7598 17.3507 14.2606 16.7345 15.4929 15.5022C16.7252 14.2698 17.3413 12.769 17.3413 10.9998C17.3413 9.23062 16.7252 7.72981 15.4929 6.49735C14.2606 5.26505 12.7598 4.64889 10.9904 4.64889C9.98013 4.64889 9.03122 4.87783 8.14374 5.33571C7.25641 5.79343 6.50497 6.42814 5.88943 7.23985H8.25695V9.16646H2.60891V3.52941H4.52451V5.60131C5.32201 4.63087 6.28398 3.88195 7.41041 3.35456C8.53699 2.82717 9.73034 2.56348 10.9904 2.56348C12.1583 2.56348 13.2544 2.78577 14.2788 3.23035C15.3033 3.67493 16.1951 4.2768 16.9543 5.03596C17.7136 5.79526 18.3155 6.6871 18.7599 7.71148C19.2045 8.736 19.4268 9.83211 19.4268 10.9998C19.4268 12.1675 19.2045 13.2636 18.7599 14.2881C18.3155 15.3125 17.7136 16.2043 16.9543 16.9636C16.1951 17.7228 15.3033 18.3246 14.2788 18.7692C13.2544 19.2138 12.1583 19.4361 10.9904 19.4361ZM13.5298 14.8936L10.0465 11.4102V6.41646H11.9619V10.6331L14.8789 13.5445L13.5298 14.8936Z" fill="#222836"/>
</g>
</svg>
