<svg width="190" height="183" viewBox="0 0 190 183" fill="none" xmlns="http://www.w3.org/2000/svg">
<g clip-path="url(#clip0_728_3954)">
<path fill-rule="evenodd" clip-rule="evenodd" d="M94.5011 32.003C96.0388 31.9838 98.0186 32.0605 98.922 32.1564C99.8254 32.2716 101.325 32.521 102.286 32.732C103.247 32.9239 104.881 33.3651 105.938 33.6913C106.995 34.0366 108.859 34.7848 110.07 35.3604C111.281 35.936 113.107 36.9336 114.107 37.6051C115.106 38.2574 116.702 39.4469 117.663 40.2527C118.624 41.0585 119.969 42.3439 120.661 43.1113C121.353 43.8979 122.276 45.0107 122.718 45.5862C123.141 46.1618 124.044 47.5432 124.717 48.6559C125.39 49.7687 126.408 51.7448 126.966 53.0686C127.523 54.3924 128.273 56.5795 128.619 57.9608C128.984 59.3422 129.407 61.491 129.58 62.7572C129.83 64.5606 129.887 65.9804 129.811 69.2802C129.734 72.8679 129.657 73.8848 129.215 76.0911C128.926 77.5108 128.292 79.8514 127.812 81.2711C127.35 82.6909 126.466 84.8588 125.87 86.0675C125.274 87.2762 124.217 89.0988 123.544 90.0964C122.872 91.0941 121.795 92.5714 121.123 93.358C120.469 94.1446 119.297 95.3916 118.508 96.1207C117.72 96.8497 116.433 97.9241 115.645 98.538C114.856 99.1328 113.838 99.8618 112.569 100.648L112.665 103.929L114.03 104.639C114.76 105.023 115.856 105.694 116.433 106.135C116.99 106.558 118.143 107.536 118.97 108.284C119.777 109.052 120.565 109.666 120.7 109.666C120.815 109.666 122.353 110.203 124.102 110.893C125.851 111.565 128.58 112.678 130.157 113.349C131.752 114.04 133.597 114.846 134.289 115.153C134.981 115.46 136.711 116.265 138.133 116.975C139.556 117.666 141.555 118.702 142.554 119.258C143.554 119.815 145.245 120.851 146.283 121.541C147.321 122.232 149.013 123.498 150.012 124.342C151.031 125.187 152.415 126.53 153.088 127.316C153.76 128.103 154.644 129.235 155.048 129.81C155.433 130.386 156.163 131.633 156.624 132.592C157.105 133.551 157.758 135.144 158.085 136.141C158.412 137.139 158.892 139 159.142 140.266C159.411 141.533 159.853 143.988 160.123 145.734C160.392 147.48 160.815 151.01 161.084 153.6C161.353 156.19 161.718 159.893 161.872 161.85C162.025 163.807 162.275 167.433 162.448 169.908C162.602 172.383 162.852 176.795 163.006 179.692C163.16 182.589 163.409 187.232 163.794 195.041L163.371 195.444C163.14 195.693 162.698 195.885 162.371 195.885C162.025 195.904 161.622 195.751 161.41 195.52C161.064 195.175 161.007 194.715 160.834 191.108C160.718 188.901 160.488 184.393 160.334 181.131C160.18 177.87 160.007 174.8 159.95 174.32C159.892 173.841 159.757 171.941 159.661 170.1C159.546 168.258 159.277 164.632 159.065 162.042C158.854 159.452 158.508 155.749 158.316 153.792C158.104 151.835 157.72 148.785 157.451 146.981C157.182 145.178 156.663 142.377 156.278 140.746C155.894 139.115 155.375 137.139 155.125 136.372C154.875 135.623 154.375 134.415 154.01 133.686C153.645 132.976 152.895 131.748 152.338 130.961C151.8 130.175 150.627 128.832 149.781 127.988C148.917 127.144 147.302 125.781 146.206 124.937C145.092 124.112 143.323 122.923 142.266 122.29C141.209 121.656 138.921 120.429 137.172 119.565C135.423 118.702 132.136 117.205 129.868 116.246C127.6 115.287 125.044 114.232 124.198 113.906C123.352 113.56 122.641 113.33 122.641 113.349C122.622 113.388 122.968 114.059 123.41 114.846C123.852 115.632 124.486 116.975 124.813 117.819C125.14 118.664 125.678 120.256 126.005 121.369C126.312 122.481 126.754 124.246 126.966 125.302C127.177 126.357 127.504 128.391 127.677 129.81C127.908 131.748 127.985 134.338 128.042 147.634L128.811 147.768C129.234 147.825 129.926 148.017 130.349 148.19C130.772 148.343 131.617 148.842 132.232 149.264C132.867 149.706 133.693 150.473 134.097 151.01C134.501 151.528 135 152.334 135.231 152.775C135.442 153.236 135.769 154.099 135.923 154.694C136.077 155.308 136.211 156.325 136.211 156.958C136.211 157.591 136.077 158.646 135.923 159.298C135.769 159.97 135.5 160.795 135.327 161.121C135.154 161.466 134.654 162.214 134.212 162.79C133.789 163.366 132.905 164.191 132.271 164.651C131.637 165.092 130.637 165.649 130.06 165.879C129.388 166.147 128.407 166.339 127.369 166.397C126.466 166.454 125.255 166.397 124.679 166.282C124.102 166.167 123.064 165.802 122.372 165.457C121.622 165.073 120.68 164.363 120.008 163.673C119.393 163.039 118.662 162.08 118.412 161.562C118.163 161.025 117.817 160.123 117.663 159.548C117.509 158.972 117.374 157.84 117.374 157.054C117.374 156.267 117.509 155.097 117.682 154.464C117.855 153.83 118.182 152.929 118.432 152.449C118.662 151.969 119.297 151.106 119.816 150.531C120.411 149.878 121.276 149.207 122.103 148.765C122.833 148.382 123.852 147.96 125.313 147.557L125.197 140.074C125.14 135.95 124.986 131.69 124.89 130.578C124.775 129.465 124.64 128.371 124.582 128.122C124.486 127.719 124.409 127.738 122.045 128.928C120.68 129.599 119.258 130.29 118.874 130.463C118.47 130.635 118.143 130.827 118.143 130.904C118.163 131 119.047 132.055 120.123 133.264C121.219 134.472 122.257 135.681 122.43 135.95C122.603 136.218 122.756 136.602 122.756 136.813C122.756 137.024 122.18 138.098 121.469 139.211C120.738 140.324 118.778 143.259 117.105 145.734C115.414 148.209 112.473 152.392 110.589 155.039C108.686 157.668 104.9 162.771 102.19 166.359C99.4794 169.946 96.2887 174.109 95.1162 175.606C93.9245 177.122 92.925 178.541 92.8865 178.771C92.8289 179.021 92.752 182.839 92.6174 195.329L92.1561 195.674C91.9062 195.885 91.4834 196 91.1566 195.962C90.8491 195.923 90.4454 195.693 90.234 195.424C89.8688 194.964 89.8688 194.657 90.0418 184.681C90.2148 175.28 90.2724 174.282 91.0413 171.059L89.7535 169.275C89.0423 168.315 86.9856 165.514 85.1788 163.097C83.372 160.68 80.6426 156.977 79.1241 154.905C77.5864 152.814 76.337 151.125 76.3178 151.164C76.3178 151.183 76.3755 155.039 76.4523 159.74C76.5292 164.632 76.51 168.833 76.4139 169.562C76.3178 170.292 76.0295 171.328 75.7796 171.865C75.5105 172.421 74.9339 173.304 74.4726 173.822C73.9344 174.416 73.204 174.954 72.3967 175.337C71.6278 175.702 70.7436 175.97 70.0901 176.028C69.2636 176.086 68.8984 176.22 68.4179 176.642C68.0719 176.949 67.5529 177.217 67.2646 177.237C66.957 177.237 66.5149 177.237 66.2458 177.217C65.9768 177.198 65.5731 177.045 65.3425 176.891C65.0926 176.738 64.7274 176.335 64.5159 175.99C64.3045 175.663 64.1315 175.088 64.1315 174.743C64.1315 174.416 64.2661 173.822 64.4198 173.457C64.5736 173.093 64.9965 172.613 65.3425 172.402C65.6692 172.191 66.2651 172.018 66.6303 172.018C67.0531 172.018 67.6682 172.248 68.2641 172.632C69.0714 173.15 69.3405 173.208 69.994 173.112C70.4169 173.035 71.1473 172.747 71.6086 172.459C72.166 172.114 72.6658 171.558 73.646 169.812L73.7037 163.864C73.7421 160.603 73.6845 156.094 73.5499 153.888C73.4346 151.682 73.2616 148.439 73.1655 146.693C73.0502 144.679 72.8387 142.971 72.5889 141.993C72.3774 141.149 71.9546 139.94 71.647 139.307C71.3587 138.674 70.7244 137.676 70.2439 137.101C69.7826 136.525 68.8215 135.681 68.1488 135.24C67.476 134.779 66.3612 134.242 65.6692 134.031C64.8235 133.762 63.8816 133.628 62.786 133.628C61.5943 133.628 60.8447 133.743 59.9989 134.031C59.3646 134.261 58.3651 134.779 57.7885 135.163C57.2119 135.566 56.3085 136.391 55.7895 137.024C55.2897 137.638 54.617 138.693 54.3094 139.345C54.0019 140.017 53.579 141.264 53.3676 142.127C53.0985 143.278 52.9063 145.255 52.6756 149.379C52.5026 152.487 52.3489 158.281 52.3297 162.234C52.3104 167.893 52.3681 169.601 52.5795 170.196C52.7141 170.618 53.0408 171.251 53.2907 171.577C53.5406 171.922 54.0788 172.364 54.4824 172.575C54.8669 172.766 55.5204 172.977 55.924 173.054C56.5007 173.15 56.8467 173.054 57.75 172.575C58.6535 172.076 58.9802 171.98 59.6145 172.076C60.1143 172.153 60.5948 172.402 61.0177 172.824C61.5174 173.323 61.6904 173.668 61.7673 174.416C61.8634 175.184 61.8057 175.51 61.4982 176.047C61.2675 176.412 60.8447 176.853 60.5564 177.006C60.268 177.16 59.7298 177.294 59.3454 177.275C58.9033 177.275 58.4036 177.083 57.9807 176.757C57.4617 176.373 57.0389 176.22 56.1547 176.162C55.4435 176.124 54.5785 175.894 53.9058 175.587C53.2907 175.318 52.3489 174.685 51.8107 174.167C51.2725 173.668 50.6766 172.997 50.4844 172.69C50.2922 172.383 49.9847 171.673 49.8117 171.155C49.5041 170.292 49.4849 169.256 49.5041 160.891C49.5233 155.768 49.6195 150.166 49.7156 148.42C49.8309 146.674 50.0039 144.564 50.1192 143.72C50.2345 142.876 50.5421 141.456 50.8112 140.554C51.061 139.652 51.5992 138.329 51.9837 137.58C52.4642 136.659 53.2523 135.681 54.4248 134.492C55.7703 133.149 56.4814 132.592 57.5963 132.055C58.3843 131.671 59.5761 131.249 60.2296 131.115C60.8831 130.981 61.4982 130.77 61.5943 130.674C61.6904 130.578 61.8634 129.753 61.9979 128.851C62.1325 127.949 62.4208 126.357 62.613 125.302C62.8245 124.246 63.2473 122.52 63.5549 121.465C63.8624 120.409 64.4198 118.779 64.8043 117.819C65.1887 116.86 65.8422 115.517 66.2651 114.788C66.6687 114.078 66.9955 113.464 66.9763 113.426C66.9378 113.368 65.5731 113.867 63.9393 114.539C62.3055 115.21 59.4415 116.419 57.5963 117.225C55.751 118.05 52.9832 119.373 51.4455 120.16C49.9078 120.966 47.755 122.194 46.6402 122.865C45.5253 123.556 43.9684 124.611 43.1803 125.206C42.3923 125.82 41.1621 126.856 40.4701 127.527C39.7782 128.199 38.7787 129.273 38.2597 129.906C37.7407 130.539 36.9526 131.652 36.5105 132.4C36.0685 133.149 35.3957 134.434 35.0305 135.278C34.6653 136.122 34.1463 137.638 33.8772 138.636C33.6274 139.633 33.2621 141.11 33.1084 141.897C32.9546 142.684 32.6471 144.506 32.4356 145.926C32.2242 147.346 31.8782 149.974 31.6668 151.778C31.4553 153.581 31.0517 157.802 30.7826 161.178C30.5327 164.555 30.1291 170.08 29.9176 173.457C29.7062 176.834 29.3987 181.592 29.2449 184.009C29.0911 186.426 28.9181 189.88 28.8413 191.683C28.7836 193.487 28.649 195.098 28.5529 195.271C28.4568 195.463 28.207 195.712 27.9955 195.808C27.7456 195.923 27.3997 195.942 26.996 195.808C26.5924 195.693 26.2656 195.444 26.1118 195.098C25.9196 194.657 25.9581 193.045 26.3617 185.928C26.6308 181.17 27.0152 174.57 27.2267 171.251C27.4381 167.932 27.7841 163.135 27.9955 160.603C28.207 158.07 28.4184 155.557 28.4761 155.039C28.5337 154.502 28.7067 152.91 28.8605 151.49C29.0142 150.07 29.4179 147.173 29.7447 145.063C30.0522 142.952 30.5327 140.362 30.8018 139.307C31.0709 138.252 31.4938 136.736 31.7629 135.95C32.032 135.163 32.6278 133.743 33.0892 132.784C33.5312 131.825 34.4154 130.347 35.0497 129.503C35.6648 128.64 36.6067 127.47 37.1256 126.894C37.6638 126.319 38.7018 125.302 39.4322 124.649C40.1818 123.978 42.2 122.501 43.9492 121.33C46.102 119.891 48.5046 118.529 51.4455 117.071C53.8289 115.901 57.0773 114.385 58.6535 113.714C60.2488 113.042 63.0551 111.91 64.9004 111.2C66.7456 110.491 68.6101 109.8 69.0329 109.666C69.5135 109.512 70.34 108.917 71.2434 108.054C72.0315 107.306 73.2424 106.289 73.9344 105.79C74.6263 105.31 75.5874 104.697 76.1064 104.466C76.9713 104.025 77.0098 103.967 77.0098 103.238C77.0098 102.816 77.0674 102.03 77.2212 100.552L76.2986 99.9769C75.7988 99.67 74.857 99.0177 74.2227 98.538C73.5884 98.0584 72.2237 96.8497 71.1665 95.8521C70.1285 94.8544 68.6677 93.2428 67.9373 92.3028C67.1877 91.3627 66.1305 89.847 65.5731 88.9453C65.0349 88.0436 64.3045 86.7965 63.997 86.1634C63.6702 85.5303 63.0551 84.0722 62.613 82.9019C62.1902 81.7316 61.5751 79.7939 61.2675 78.5852C60.96 77.3765 60.5564 75.3812 60.3641 74.1725C60.1335 72.6377 60.0182 70.8535 60.0182 68.321C60.0182 66.2873 60.1335 63.9083 60.268 62.9491C60.4026 62.009 60.6909 60.3974 60.8831 59.3998C61.0946 58.4021 61.6135 56.5411 62.0364 55.2749C62.4785 54.0086 63.2473 52.1093 63.7471 51.0541C64.2468 49.9989 65.1887 48.3489 65.8038 47.4089C66.4381 46.4688 67.649 44.8572 68.514 43.8596C69.3597 42.8619 70.6091 41.5573 71.2626 40.9817C71.9353 40.4062 73.0502 39.4853 73.7421 38.9481C74.4341 38.4301 75.7219 37.5475 76.6253 37.0104C77.5287 36.454 79.0857 35.629 80.0852 35.1494C81.0847 34.6697 82.853 33.9791 84.0255 33.5954C85.198 33.2116 87.0817 32.732 88.2542 32.5402C89.4267 32.3291 90.6761 32.1373 91.0413 32.0989C91.4065 32.0605 92.9634 32.003 94.5011 32.003ZM87.7352 35.6098C86.7549 35.84 85.0443 36.3197 83.9294 36.6842C82.8146 37.0679 81.0078 37.8545 79.893 38.4301C78.7781 39.0056 77.1828 39.9649 76.337 40.5597C75.4913 41.1544 73.8959 42.5166 72.8003 43.5718C71.7047 44.627 70.1285 46.392 69.302 47.5048C68.4563 48.6175 67.2838 50.5169 66.6495 51.7256C66.0344 52.9343 65.2463 54.7185 64.9004 55.6586C64.5736 56.5987 64.1507 58.0376 63.9393 58.8242C63.7471 59.6108 63.4395 61.1648 63.2666 62.2776C63.0936 63.3903 62.9014 65.3664 62.8437 66.6902C62.786 68.0332 62.8437 70.1436 62.959 71.4866C63.0936 72.8104 63.3242 74.5754 63.478 75.4196C63.6318 76.2637 63.9585 77.741 64.2084 78.6811C64.4583 79.6212 64.9965 81.2328 65.3809 82.2304C65.7653 83.2281 66.4765 84.7821 66.957 85.6838C67.4376 86.5855 68.3602 88.1012 68.9945 89.0412C69.7249 90.0964 71.1281 91.7272 72.685 93.262C74.0497 94.6434 76.0103 96.3509 77.0098 97.0607C78.0093 97.7706 79.7968 98.8258 80.9501 99.4014C82.1226 99.9577 83.7949 100.687 84.6983 100.994C85.6017 101.301 87.2355 101.761 88.3503 102.011C90.1571 102.433 90.8299 102.471 94.8855 102.471C98.5376 102.471 99.7101 102.413 101.036 102.126C101.94 101.934 103.439 101.512 104.4 101.224C105.361 100.917 106.957 100.284 107.956 99.8234C108.956 99.363 110.551 98.4996 111.512 97.9049C112.473 97.3293 114.068 96.159 115.068 95.3149C116.067 94.4707 117.413 93.2045 118.066 92.4754C118.701 91.7464 119.7 90.4993 120.277 89.7127C120.873 88.9261 121.642 87.7558 122.026 87.1227C122.41 86.4896 123.064 85.2809 123.487 84.4367C123.91 83.5926 124.525 82.1153 124.852 81.1752C125.197 80.2351 125.678 78.6236 125.928 77.6259C126.159 76.6283 126.466 75.2469 126.581 74.5562C126.697 73.8656 126.87 72.1389 126.966 70.7192C127.1 69.0308 127.1 67.3425 126.966 65.8269C126.87 64.5606 126.601 62.527 126.389 61.3183C126.159 60.1096 125.64 58.076 125.236 56.8097C124.813 55.5435 124.006 53.5674 123.448 52.3971C122.872 51.2268 121.891 49.5001 121.257 48.56C120.623 47.6199 119.412 46.0467 118.585 45.1066C117.74 44.1665 116.413 42.8619 115.625 42.2096C114.837 41.5573 113.473 40.5597 112.569 39.9841C111.666 39.3893 110.339 38.6219 109.59 38.2382C108.84 37.8737 107.379 37.2598 106.322 36.8569C105.265 36.4732 103.535 35.936 102.478 35.6866C101.421 35.4372 99.6524 35.1494 98.5376 35.0343C97.4228 34.9383 95.5199 34.8424 94.3089 34.8616C93.098 34.8808 91.5218 34.9575 90.8106 35.0534C90.0802 35.1494 88.6963 35.3988 87.7352 35.6098ZM79.7007 107.076C82.1611 109.455 83.9102 110.97 85.1788 111.987C86.4474 112.985 89.0999 114.961 91.099 116.342C93.0787 117.743 94.7894 118.875 94.8855 118.875C94.9817 118.875 95.8658 118.299 96.8269 117.57C97.788 116.86 100.114 115.153 101.978 113.752C103.843 112.371 106.38 110.318 107.629 109.205L109.878 107.171C109.878 103.315 109.859 102.183 109.84 102.183C109.801 102.183 109.359 102.375 108.821 102.625C108.302 102.874 107.091 103.354 106.13 103.68C105.169 104.006 103.67 104.447 102.766 104.658C101.863 104.888 100.229 105.176 99.1142 105.349C97.9994 105.502 96.3656 105.637 95.4622 105.637C94.5588 105.637 92.925 105.541 91.8101 105.445C90.6953 105.33 89.1384 105.099 88.3503 104.946C87.5622 104.792 86.0822 104.409 85.0827 104.102C84.0832 103.795 82.5455 103.238 81.6805 102.874C80.7964 102.49 80.0083 102.183 79.893 102.183C79.7776 102.183 79.7007 103.123 79.7007 104.62V107.076ZM112.473 112.735C112.3 114.174 111.992 116.189 111.781 117.244C111.57 118.299 111.089 120.371 110.724 121.848C110.359 123.345 109.705 125.743 109.282 127.22C108.859 128.717 108.206 130.904 107.841 132.113C107.456 133.34 106.514 136.314 105.707 138.731C104.919 141.168 103.708 144.756 103.016 146.693C102.324 148.65 100.959 152.372 99.9792 154.943C98.9797 157.533 97.2305 162.195 96.0773 165.303C94.924 168.431 93.8284 171.462 93.6554 172.076C93.4824 172.69 93.3478 173.246 93.3478 173.323C93.3478 173.4 94.2512 172.268 95.3853 170.771C96.5194 169.294 98.922 166.109 100.748 163.673C102.555 161.255 105.207 157.668 106.63 155.711C108.052 153.773 110.166 150.838 111.32 149.188C112.473 147.557 114.837 144.103 116.548 141.513L119.662 136.813C118.528 135.489 117.355 134.146 116.336 132.976C115.145 131.633 114.491 130.712 114.491 130.443C114.491 130.213 114.703 129.791 114.972 129.522C115.241 129.273 115.741 128.928 116.067 128.774C116.413 128.64 117.99 127.892 119.585 127.124C121.161 126.376 122.833 125.589 123.275 125.378C124.025 125.052 124.083 124.976 123.987 124.496C123.91 124.208 123.66 123.326 123.429 122.52C123.198 121.733 122.776 120.486 122.507 119.738C122.237 119.009 121.738 117.762 121.372 116.956C121.007 116.169 120.296 114.884 119.777 114.078C119.277 113.292 118.355 112.045 117.759 111.296C117.163 110.567 116.067 109.474 115.337 108.898C114.607 108.303 113.78 107.689 113.473 107.498C113.184 107.325 112.915 107.171 112.857 107.171C112.8 107.171 112.761 107.843 112.761 108.668C112.761 109.493 112.627 111.316 112.473 112.735ZM72.9156 110.414C72.0891 111.22 70.8782 112.659 70.2439 113.599C69.6096 114.558 68.8023 115.901 68.4563 116.572C68.1103 117.263 67.5337 118.644 67.1493 119.642C66.784 120.659 66.2843 122.194 66.0729 123.057C65.8422 123.92 65.6692 124.765 65.6692 124.918C65.6692 125.091 65.7461 125.206 65.8614 125.206C65.9575 125.206 67.0339 125.666 68.2064 126.203C69.3981 126.741 71.3203 127.623 72.4928 128.18C73.7229 128.755 74.7417 129.369 74.9531 129.638C75.1261 129.887 75.2799 130.309 75.2799 130.539C75.2799 130.808 74.6648 131.652 73.646 132.784C72.6273 133.916 72.0699 134.703 72.1468 134.856C72.2237 134.99 72.5889 135.489 72.9541 135.95C73.3193 136.429 73.9344 137.523 74.3188 138.348C74.7224 139.192 75.1837 140.497 75.376 141.226C75.5489 141.974 75.7988 143.394 75.9334 144.391L76.164 146.214C78.4321 149.341 80.0275 151.509 81.1808 153.063C82.3148 154.617 85.2365 158.55 87.6776 161.812C90.0994 165.092 92.1369 167.721 92.1946 167.663C92.2522 167.625 92.5021 166.915 92.7712 166.109L93.271 164.632C91.9639 161.217 90.5031 157.245 89.1768 153.6C87.8506 149.974 85.7554 143.931 84.4868 140.17C83.2375 136.429 81.5652 131.077 80.7579 128.275C79.9506 125.494 79.0664 122.251 78.7973 121.081C78.5475 119.93 78.163 118.069 77.9516 116.956C77.7594 115.862 77.4519 113.714 77.2981 112.217C77.1443 110.721 77.0098 109.013 77.0098 108.419C77.0098 107.709 76.9329 107.383 76.7599 107.383C76.6446 107.383 76.0487 107.728 75.4721 108.169C74.8954 108.591 73.7421 109.608 72.9156 110.414ZM106.034 114.193C105.246 114.846 102.92 116.553 100.883 117.992C98.8643 119.431 97.1921 120.678 97.1921 120.755C97.1921 120.831 97.9033 121.503 98.7682 122.232C99.6524 122.98 101.632 124.765 103.189 126.223C105.669 128.525 106.034 128.813 106.111 128.429C106.149 128.199 106.63 126.395 107.168 124.438C107.706 122.501 108.437 119.508 108.802 117.819C109.167 116.15 109.571 113.963 109.686 112.985C109.82 112.006 109.878 111.162 109.84 111.124C109.782 111.066 109.244 111.488 108.61 112.025C107.975 112.582 106.822 113.56 106.034 114.193ZM80.1621 113.848C80.335 114.98 80.6234 116.553 80.7771 117.34C80.9501 118.146 81.3345 119.815 81.6421 121.081C81.9689 122.366 82.5839 124.649 83.0068 126.165C83.4297 127.7 83.8141 128.985 83.8525 129.004C83.891 129.024 84.2177 128.736 84.5445 128.352C84.8905 127.968 86.4282 126.472 87.9659 125.033C89.5036 123.613 91.1758 122.059 91.714 121.618C92.6367 120.831 92.6559 120.812 92.2907 120.525C92.0792 120.371 90.8299 119.489 89.5036 118.568C88.1773 117.647 86.2744 116.285 85.2749 115.536C84.2754 114.807 82.6416 113.522 81.6613 112.697C80.7002 111.872 79.8353 111.2 79.7584 111.2C79.7007 111.2 79.6815 111.335 79.7392 111.488C79.7968 111.642 79.9891 112.697 80.1621 113.848ZM92.8865 124.246C91.3681 125.532 90.8683 126.069 90.9644 126.319C91.0221 126.51 91.5026 127.604 92.0408 128.755L93.0019 130.865L96.8077 130.961C97.1152 130.156 97.615 129.062 98.1147 128.026L99.0181 126.127C97.2305 124.515 96.3079 123.69 95.8274 123.287L94.924 122.52L92.8865 124.246ZM64.8043 129.542L64.6697 130.865C66.2651 131.23 67.4184 131.69 68.2641 132.113L69.8018 132.861C71.2049 131.326 71.6086 130.808 71.6278 130.731C71.6278 130.635 71.474 130.539 71.301 130.501C71.1088 130.463 69.6672 129.849 68.0719 129.158C66.4957 128.448 65.1695 127.892 65.1502 127.892C65.131 127.892 65.0734 127.968 65.0157 128.064C64.9772 128.16 64.8811 128.832 64.8043 129.542ZM98.9797 132.592C100.556 140.631 101.017 143.163 101.036 143.432C101.036 143.72 101.094 143.835 101.19 143.72C101.286 143.624 102.151 140.976 103.112 137.868C104.093 134.76 104.881 132.093 104.881 131.978C104.881 131.844 104.054 130.904 103.055 129.906C102.055 128.909 101.19 128.084 101.152 128.084C101.113 128.084 100.613 129.1 100.037 130.347L98.9797 132.592ZM84.6983 131.921C86.5243 137.638 87.37 140.305 87.7545 141.533C88.1389 142.76 88.5233 143.835 88.6002 143.931C88.6771 144.027 88.7347 143.873 88.7347 143.624C88.7347 143.355 89.196 140.804 89.7727 137.964L90.8299 132.784C89.1384 129.273 88.6002 128.256 88.5425 128.275C88.4849 128.275 87.6007 129.1 86.582 130.098L84.6983 131.921ZM92.9826 135.374C92.8673 136.161 92.233 139.537 91.5795 142.856L90.407 148.9C93.3094 156.919 94.2897 159.605 94.4435 160.027C94.6549 160.584 94.7702 160.718 94.8855 160.507C94.9624 160.353 95.8658 157.974 96.8846 155.231C97.9033 152.487 98.8836 149.897 99.0373 149.475C99.2872 148.842 99.3064 148.516 99.1334 147.749C99.0181 147.211 98.403 144.027 97.7687 140.65C97.1344 137.273 96.5962 134.3 96.577 134.031C96.5193 133.571 96.4617 133.551 94.924 133.494C93.7707 133.456 93.3286 133.494 93.271 133.686C93.2133 133.82 93.098 134.587 92.9826 135.374ZM122.949 151.49C122.583 151.758 121.968 152.353 121.603 152.833C121.219 153.312 120.738 154.176 120.546 154.751C120.315 155.423 120.181 156.286 120.2 157.15C120.2 158.051 120.354 158.857 120.661 159.644C120.95 160.373 121.411 161.102 121.968 161.658C122.449 162.138 123.275 162.752 123.814 163.001C124.333 163.25 125.121 163.519 125.543 163.596C125.966 163.673 126.851 163.653 127.504 163.557C128.158 163.462 129.138 163.174 129.676 162.905C130.195 162.637 131.002 162.061 131.444 161.601C131.906 161.159 132.482 160.353 132.751 159.835C133.155 159.01 133.213 158.608 133.213 156.958C133.232 155.404 133.155 154.866 132.809 154.176C132.598 153.696 132.04 152.89 131.56 152.372C131.079 151.854 130.272 151.24 129.676 150.953C128.869 150.569 128.254 150.435 127.081 150.377C125.966 150.339 125.274 150.415 124.582 150.665C124.044 150.857 123.314 151.221 122.949 151.49ZM142.9 156.651C143.169 156.708 143.496 156.938 143.611 157.15C143.804 157.437 143.9 161.773 143.996 176.143C144.111 190.053 144.092 194.868 143.919 195.175C143.804 195.424 143.535 195.693 143.323 195.808C143.073 195.923 142.708 195.942 142.304 195.808C141.958 195.712 141.612 195.501 141.536 195.329C141.459 195.175 141.324 186.599 141.247 176.258C141.132 160.737 141.151 157.437 141.363 157.15C141.497 156.977 141.805 156.747 142.016 156.67C142.228 156.593 142.631 156.593 142.9 156.651ZM135.539 167.414L136.403 168.277V188.422L135.865 189.458C135.577 190.033 135 190.801 134.577 191.146C134.155 191.511 133.347 191.952 132.79 192.163C131.848 192.527 131.252 192.547 123.66 192.547C117.028 192.547 115.375 192.489 114.683 192.259C114.203 192.105 113.376 191.607 112.857 191.146C112.262 190.647 111.723 189.937 111.474 189.362C111.051 188.441 111.051 188.211 110.935 168.143L111.377 167.778C111.819 167.433 112.3 167.414 135.539 167.414ZM113.569 179.347C113.626 187.175 113.665 188.096 113.953 188.652C114.145 188.997 114.549 189.419 114.876 189.573C115.356 189.803 116.759 189.861 123.756 189.861H132.079C133.213 189.112 133.463 188.748 133.655 188.134C133.828 187.482 133.886 185.237 133.847 178.733L133.809 170.196C115.106 170.1 113.703 170.138 113.607 170.368C113.569 170.522 113.549 174.57 113.569 179.347ZM46.9669 175.663C47.2552 175.663 47.6973 175.779 48.3701 176.239V195.233L47.8319 195.616C47.5436 195.827 47.1015 196 46.8708 196C46.6209 196 46.275 195.77 46.0443 195.463C45.6599 194.964 45.6599 194.695 45.6599 185.678C45.6791 176.68 45.6791 176.412 46.0635 176.047C46.275 175.836 46.6786 175.663 46.9669 175.663ZM82.7761 65.1746C83.5066 65.1746 83.7372 65.2705 84.3331 65.8844C84.7559 66.3065 85.1211 66.9396 85.2557 67.4576C85.3902 67.9565 85.4479 68.6855 85.371 69.1843C85.3134 69.664 85.1019 70.3354 84.9289 70.7C84.7367 71.0645 84.3331 71.5249 84.0255 71.7552C83.6603 72.0046 83.1413 72.1581 82.6608 72.1581C82.2379 72.1581 81.6613 72.0046 81.373 71.8127C81.0847 71.6401 80.6618 71.122 80.4311 70.6616C80.1236 70.1052 79.9891 69.5105 79.9891 68.7047C79.9891 67.8989 80.1236 67.285 80.4119 66.6902C80.6426 66.2106 81.0655 65.6734 81.373 65.5007C81.6613 65.3089 82.2764 65.1554 82.7761 65.1746ZM107.399 65.1938C107.937 65.2321 108.456 65.4048 108.725 65.635C108.956 65.8461 109.321 66.3641 109.513 66.7861C109.724 67.2274 109.859 67.9948 109.859 68.6088C109.859 69.2227 109.724 69.9709 109.513 70.4314C109.321 70.8535 108.956 71.3906 108.686 71.6401C108.437 71.8703 107.898 72.1197 107.475 72.1772C106.86 72.254 106.553 72.1964 106.034 71.8319C105.649 71.5825 105.15 70.9878 104.919 70.5273C104.631 69.9326 104.496 69.3378 104.496 68.6088C104.496 67.9756 104.65 67.2274 104.881 66.7286C105.092 66.2873 105.534 65.7501 105.88 65.5199C106.341 65.2321 106.745 65.1554 107.399 65.1938ZM85.1788 82.9978C85.4479 82.9978 86.1591 83.4007 86.8511 83.9571C87.5046 84.4943 88.6194 85.2233 89.3114 85.5687C89.9841 85.9332 91.0797 86.3553 91.714 86.5088C92.3483 86.6622 93.3478 86.8541 93.9629 86.9117C94.6164 86.9692 95.7505 86.9117 96.75 86.739C97.9417 86.5279 98.9412 86.2018 100.171 85.607C101.113 85.1274 102.343 84.36 102.901 83.8804C103.574 83.2856 104.093 82.9978 104.439 82.9978C104.727 82.9978 105.169 83.1897 105.4 83.4391C105.688 83.7077 105.842 84.0914 105.842 84.4751C105.842 84.9931 105.649 85.2809 104.823 86.0099C104.246 86.5088 103.189 87.2954 102.459 87.7366C101.728 88.1779 100.44 88.7535 99.5948 89.0412C98.749 89.3098 97.4035 89.5976 96.6155 89.7127C95.6736 89.8278 94.5588 89.8278 93.4439 89.6935C92.4829 89.5976 91.2335 89.3674 90.6569 89.1947C90.061 89.0412 88.9846 88.6 88.2542 88.2354C87.5046 87.8517 86.5627 87.3145 86.1399 87.0268C85.717 86.739 84.9866 86.1059 84.5445 85.607C84.1024 85.1274 83.718 84.5902 83.6988 84.4559C83.6988 84.3024 83.9102 83.9187 84.1985 83.5926C84.5061 83.2281 84.9097 82.9978 85.1788 82.9978ZM126.831 153.6C127.235 153.6 127.831 153.715 128.177 153.85C128.523 153.984 129.08 154.444 129.426 154.866C129.83 155.346 130.099 155.902 130.176 156.478C130.253 156.996 130.195 157.61 130.06 158.013C129.926 158.377 129.58 158.934 129.311 159.222C129.023 159.529 128.561 159.893 128.273 160.047C127.985 160.2 127.35 160.315 126.889 160.315C126.408 160.315 125.774 160.2 125.486 160.047C125.197 159.912 124.717 159.509 124.429 159.183C124.14 158.857 123.833 158.301 123.737 157.955C123.641 157.61 123.602 157.073 123.641 156.766C123.698 156.44 123.775 155.998 123.814 155.749C123.871 155.519 124.102 155.058 124.352 154.732C124.602 154.387 125.101 154.003 125.467 153.869C125.813 153.735 126.428 153.6 126.831 153.6ZM126.178 156.996C126.197 157.245 126.389 157.514 126.601 157.629C126.812 157.725 127.158 157.783 127.369 157.725C127.619 157.648 127.754 157.456 127.754 157.092C127.754 156.804 127.639 156.459 127.504 156.325C127.369 156.19 127.139 156.094 126.966 156.094C126.812 156.094 126.543 156.19 126.408 156.325C126.255 156.44 126.139 156.747 126.178 156.996Z" fill="#222836"/>
</g>
<rect x="1.5" y="1.5" width="187" height="180" rx="18.5" stroke="#222836" stroke-width="3"/>
<defs>
<clipPath id="clip0_728_3954">
<rect width="190" height="183" rx="20" fill="white"/>
</clipPath>
</defs>
</svg>
