<svg width="145" height="159" viewBox="0 0 145 159" fill="none" xmlns="http://www.w3.org/2000/svg">
<path fill-rule="evenodd" clip-rule="evenodd" d="M71.8426 0.00310394C73.4554 -0.0170174 75.5317 0.0634678 76.4792 0.164074C77.4267 0.284802 78.999 0.546379 80.007 0.767713C81.0149 0.968926 82.7284 1.43172 83.8372 1.77378C84.9459 2.13596 86.9013 2.92069 88.1713 3.52433C89.4414 4.12797 91.3564 5.17428 92.4047 5.87852C93.453 6.56265 95.1262 7.81017 96.1341 8.65526C97.1421 9.50036 98.5532 10.8485 99.2789 11.6533C100.005 12.4783 100.972 13.6453 101.436 14.249C101.879 14.8526 102.827 16.3014 103.532 17.4684C104.238 18.6354 105.306 20.7079 105.891 22.0963C106.476 23.4847 107.262 25.7785 107.625 27.2272C108.008 28.676 108.451 30.9295 108.633 32.2576C108.895 34.149 108.955 35.6379 108.875 39.0988C108.794 42.8615 108.713 43.9279 108.25 46.2419C107.947 47.7308 107.282 50.1856 106.778 51.6746C106.294 53.1636 105.367 55.4373 104.742 56.7049C104.117 57.9726 103.008 59.8841 102.303 60.9304C101.597 61.9767 100.468 63.5261 99.7627 64.351C99.0773 65.176 97.8476 66.4839 97.0211 67.2485C96.1946 68.0131 94.8439 69.1399 94.0174 69.7838C93.1909 70.4075 92.1225 71.1722 90.792 71.9971L90.8928 75.4379L92.3241 76.1824C93.0901 76.5848 94.2392 77.289 94.8439 77.7518C95.4285 78.1945 96.6381 79.2207 97.5049 80.0054C98.3516 80.8103 99.1781 81.4541 99.3192 81.4541C99.4402 81.4541 101.053 82.0175 102.887 82.7419C104.722 83.4461 107.584 84.6132 109.237 85.3174C110.911 86.0418 112.846 86.8869 113.572 87.2088C114.297 87.5308 116.112 88.3759 117.603 89.1204C119.095 89.8447 121.192 90.9313 122.24 91.5148C123.288 92.0983 125.062 93.1849 126.151 93.9092C127.239 94.6336 129.013 95.9616 130.062 96.8469C131.13 97.7323 132.581 99.1408 133.287 99.9657C133.993 100.791 134.92 101.978 135.343 102.582C135.746 103.185 136.512 104.493 136.996 105.499C137.5 106.505 138.186 108.175 138.528 109.222C138.871 110.268 139.375 112.22 139.637 113.548C139.919 114.876 140.383 117.451 140.665 119.282C140.947 121.113 141.391 124.816 141.673 127.532C141.955 130.248 142.338 134.132 142.5 136.184C142.661 138.236 142.923 142.039 143.104 144.635C143.266 147.231 143.528 151.859 143.689 154.897C143.85 157.935 144.112 162.805 144.515 170.994L144.072 171.416C143.83 171.678 143.366 171.879 143.024 171.879C142.661 171.899 142.237 171.738 142.016 171.497C141.653 171.135 141.592 170.652 141.411 166.869C141.29 164.555 141.048 159.827 140.887 156.406C140.726 152.985 140.544 149.766 140.484 149.263C140.423 148.76 140.282 146.768 140.181 144.836C140.06 142.905 139.778 139.102 139.556 136.385C139.335 133.669 138.972 129.786 138.77 127.733C138.548 125.681 138.145 122.481 137.863 120.59C137.581 118.699 137.037 115.761 136.633 114.051C136.23 112.34 135.686 110.268 135.424 109.463C135.162 108.678 134.638 107.411 134.255 106.646C133.872 105.902 133.085 104.614 132.501 103.789C131.936 102.964 130.707 101.555 129.82 100.67C128.912 99.7846 127.219 98.356 126.07 97.4707C124.901 96.6055 123.046 95.358 121.937 94.694C120.829 94.03 118.43 92.7422 116.595 91.8367C114.761 90.9313 111.314 89.3618 108.935 88.3557C106.556 87.3497 103.875 86.243 102.988 85.9009C102.101 85.5388 101.355 85.2973 101.355 85.3174C101.335 85.3577 101.698 86.0619 102.162 86.8869C102.625 87.7119 103.291 89.1204 103.633 90.0057C103.976 90.891 104.54 92.5611 104.883 93.7281C105.206 94.8952 105.669 96.7463 105.891 97.853C106.113 98.9597 106.455 101.093 106.637 102.582C106.879 104.614 106.959 107.33 107.02 121.274L107.826 121.415C108.27 121.475 108.995 121.677 109.439 121.858C109.882 122.019 110.769 122.542 111.415 122.985C112.08 123.447 112.947 124.252 113.37 124.816C113.793 125.359 114.317 126.204 114.559 126.667C114.781 127.15 115.124 128.055 115.285 128.679C115.446 129.323 115.587 130.389 115.587 131.053C115.587 131.717 115.446 132.824 115.285 133.508C115.124 134.212 114.842 135.077 114.66 135.419C114.479 135.782 113.955 136.566 113.491 137.17C113.047 137.774 112.12 138.639 111.455 139.122C110.79 139.585 109.741 140.168 109.137 140.41C108.431 140.691 107.403 140.892 106.314 140.953C105.367 141.013 104.097 140.953 103.492 140.832C102.887 140.711 101.799 140.329 101.073 139.967C100.287 139.564 99.2991 138.82 98.5935 138.096C97.9484 137.432 97.1824 136.426 96.9203 135.882C96.6582 135.319 96.2954 134.373 96.1341 133.77C95.9728 133.166 95.8317 131.979 95.8317 131.154C95.8317 130.329 95.9728 129.101 96.1543 128.437C96.3357 127.773 96.6784 126.828 96.9405 126.325C97.1824 125.822 97.8476 124.916 98.3919 124.313C99.0168 123.628 99.924 122.924 100.791 122.461C101.557 122.059 102.625 121.616 104.157 121.194L104.036 113.346C103.976 109.02 103.815 104.553 103.714 103.386C103.593 102.219 103.452 101.072 103.391 100.811C103.291 100.388 103.21 100.408 100.73 101.656C99.299 102.36 97.8073 103.085 97.4041 103.266C96.9808 103.447 96.6381 103.648 96.6381 103.728C96.6582 103.829 97.5855 104.936 98.7144 106.203C99.8635 107.471 100.952 108.739 101.134 109.02C101.315 109.302 101.476 109.704 101.476 109.926C101.476 110.147 100.871 111.274 100.126 112.441C99.3595 113.608 97.3033 116.687 95.5495 119.282C93.7755 121.878 90.6912 126.264 88.7156 129.041C86.7199 131.798 82.7486 137.15 79.9062 140.913C77.0638 144.675 73.7174 149.042 72.4877 150.611C71.2379 152.201 70.1896 153.69 70.1493 153.931C70.0888 154.193 70.0082 158.197 69.8671 171.296L69.3832 171.658C69.1212 171.879 68.6777 172 68.335 171.96C68.0125 171.92 67.5891 171.678 67.3674 171.396C66.9843 170.913 66.9843 170.592 67.1658 160.128C67.3472 150.269 67.4077 149.223 68.214 145.842L66.8634 143.971C66.1175 142.965 63.9605 140.027 62.0656 137.492C60.1706 134.957 57.3081 131.073 55.7155 128.9C54.1028 126.707 52.7925 124.936 52.7723 124.977C52.7723 124.997 52.8328 129.041 52.9134 133.971C52.9941 139.102 52.9739 143.508 52.8731 144.273C52.7723 145.037 52.4699 146.124 52.2079 146.687C51.9257 147.271 51.3209 148.197 50.8371 148.74C50.2726 149.364 49.5066 149.927 48.6599 150.329C47.8536 150.712 46.9262 150.993 46.2408 151.054C45.374 151.114 44.991 151.255 44.487 151.698C44.1242 152.02 43.5799 152.301 43.2775 152.321C42.9549 152.321 42.4913 152.321 42.2091 152.301C41.9268 152.281 41.5035 152.12 41.2616 151.959C40.9995 151.798 40.6165 151.376 40.3948 151.013C40.173 150.671 39.9916 150.068 39.9916 149.706C39.9916 149.364 40.1327 148.74 40.294 148.357C40.4552 147.975 40.8987 147.472 41.2616 147.251C41.6043 147.029 42.2292 146.848 42.6122 146.848C43.0557 146.848 43.7008 147.09 44.3257 147.492C45.1724 148.036 45.4546 148.096 46.14 147.995C46.5835 147.915 47.3496 147.613 47.8334 147.311C48.418 146.949 48.9421 146.365 49.9702 144.534L50.0307 138.297C50.071 134.876 50.0106 130.148 49.8694 127.834C49.7485 125.52 49.5671 122.119 49.4663 120.288C49.3453 118.176 49.1236 116.385 48.8615 115.359C48.6398 114.473 48.1963 113.206 47.8737 112.542C47.5713 111.878 46.9061 110.831 46.4021 110.228C45.9183 109.624 44.9104 108.739 44.2048 108.276C43.4992 107.793 42.33 107.23 41.6043 107.008C40.7173 106.726 39.7295 106.586 38.5805 106.586C37.3306 106.586 36.5444 106.706 35.6574 107.008C34.9922 107.25 33.9439 107.793 33.3391 108.195C32.7344 108.618 31.7869 109.483 31.2426 110.147C30.7185 110.791 30.0129 111.898 29.6904 112.582C29.3678 113.286 28.9244 114.594 28.7026 115.499C28.4204 116.707 28.2188 118.779 27.9769 123.105C27.7955 126.365 27.6342 132.442 27.614 136.587C27.5939 142.522 27.6543 144.313 27.8761 144.937C28.0172 145.38 28.3599 146.044 28.622 146.386C28.884 146.748 29.4485 147.211 29.8718 147.432C30.275 147.633 30.9604 147.854 31.3837 147.935C31.9885 148.036 32.3514 147.935 33.2988 147.432C34.2463 146.909 34.589 146.808 35.2542 146.909C35.7784 146.989 36.2823 147.251 36.7258 147.693C37.25 148.217 37.4314 148.579 37.512 149.364C37.6128 150.168 37.5524 150.51 37.2298 151.074C36.9879 151.456 36.5444 151.919 36.242 152.08C35.9396 152.241 35.3752 152.382 34.972 152.362C34.5084 152.362 33.9842 152.16 33.5407 151.818C32.9964 151.416 32.553 151.255 31.6256 151.195C30.8798 151.154 29.9726 150.913 29.2671 150.591C28.622 150.309 27.6342 149.645 27.0697 149.102C26.5053 148.579 25.8804 147.875 25.6788 147.553C25.4772 147.231 25.1546 146.486 24.9732 145.943C24.6507 145.037 24.6305 143.951 24.6507 135.178C24.6708 129.806 24.7716 123.93 24.8724 122.099C24.9934 120.268 25.1748 118.055 25.2957 117.169C25.4167 116.284 25.7392 114.795 26.0215 113.849C26.2835 112.904 26.848 111.515 27.2512 110.731C27.7551 109.765 28.5816 108.739 29.8113 107.491C31.2225 106.083 31.9683 105.499 33.1376 104.936C33.9641 104.533 35.2139 104.091 35.8993 103.95C36.5847 103.809 37.2298 103.588 37.3306 103.487C37.4314 103.386 37.6128 102.521 37.7539 101.575C37.8951 100.63 38.1974 98.9597 38.399 97.853C38.6208 96.7463 39.0643 94.9354 39.3868 93.8287C39.7094 92.7221 40.294 91.0118 40.6971 90.0057C41.1003 88.9996 41.7857 87.5911 42.2292 86.8265C42.6526 86.082 42.9953 85.4382 42.9751 85.3979C42.9348 85.3376 41.5035 85.8607 39.79 86.5649C38.0765 87.2692 35.0728 88.5368 33.1376 89.3819C31.2023 90.2471 28.2994 91.6355 26.6867 92.4605C25.074 93.3056 22.8162 94.5933 21.647 95.2976C20.4778 96.022 18.8449 97.1286 18.0184 97.7524C17.1919 98.3963 15.9017 99.4828 15.176 100.187C14.4503 100.891 13.402 102.018 12.8577 102.682C12.3134 103.346 11.4869 104.513 11.0233 105.298C10.5596 106.083 9.85404 107.431 9.47102 108.316C9.088 109.201 8.54371 110.791 8.26149 111.837C7.99942 112.884 7.6164 114.433 7.45513 115.258C7.29386 116.083 6.97132 117.994 6.74957 119.483C6.52782 120.972 6.16496 123.729 5.94321 125.62C5.72146 127.512 5.29813 131.938 5.0159 135.48C4.75384 139.021 4.3305 144.816 4.10875 148.357C3.88701 151.899 3.56446 156.889 3.40319 159.424C3.24192 161.959 3.06049 165.581 2.97986 167.473C2.91938 169.364 2.77827 171.054 2.67747 171.235C2.57668 171.437 2.31461 171.698 2.09286 171.799C1.8308 171.92 1.46794 171.94 1.0446 171.799C0.621264 171.678 0.278563 171.416 0.117292 171.054C-0.084297 170.592 -0.0439792 168.901 0.379358 161.436C0.661582 156.446 1.06476 149.525 1.28651 146.044C1.50826 142.563 1.87112 137.532 2.09286 134.876C2.31461 132.22 2.53636 129.584 2.59684 129.041C2.65731 128.478 2.83874 126.808 3.00001 125.319C3.16128 123.83 3.58462 120.791 3.92732 118.578C4.24987 116.365 4.75384 113.648 5.03606 112.542C5.31829 111.435 5.76178 109.845 6.04401 109.02C6.32623 108.195 6.95116 106.706 7.43497 105.7C7.89862 104.694 8.82593 103.145 9.49118 102.26C10.1363 101.354 11.124 100.127 11.6683 99.5231C12.2328 98.9194 13.3214 97.853 14.0874 97.1689C14.8736 96.4646 16.9903 94.9153 18.8247 93.6879C21.0825 92.1788 23.6024 90.7502 26.6867 89.221C29.1864 87.9936 32.5933 86.404 34.2463 85.6997C35.9195 84.9955 38.8627 83.8083 40.7979 83.0638C42.7332 82.3194 44.6886 81.595 45.1321 81.4541C45.6361 81.2932 46.5029 80.6694 47.4504 79.764C48.2769 78.9792 49.5469 77.9128 50.2726 77.3896C50.9983 76.8866 52.0063 76.2427 52.5506 76.0013C53.4577 75.5385 53.498 75.4781 53.498 74.7135C53.498 74.2708 53.5585 73.4459 53.7198 71.8965L52.7522 71.2929C52.228 70.9709 51.2402 70.2868 50.575 69.7838C49.9098 69.2808 48.4785 68.0131 47.3697 66.9668C46.2812 65.9205 44.7491 64.2303 43.983 63.2444C43.1968 62.2584 42.0881 60.6688 41.5035 59.7231C40.9391 58.7774 40.173 57.4695 39.8505 56.8055C39.5078 56.1415 38.8627 54.6123 38.399 53.3849C37.9555 52.1575 37.3105 50.1253 36.9879 48.8576C36.6654 47.59 36.242 45.4974 36.0404 44.2297C35.7985 42.62 35.6776 40.7487 35.6776 38.0927C35.6776 35.9599 35.7985 33.4648 35.9396 32.4588C36.0808 31.4728 36.3831 29.7826 36.5847 28.7363C36.8065 27.69 37.3508 25.7383 37.7943 24.4102C38.2579 23.0822 39.0643 21.0902 39.5884 19.9836C40.1125 18.8769 41.1003 17.1465 41.7454 16.1605C42.4107 15.1746 43.6807 13.4844 44.5878 12.4381C45.4748 11.3918 46.7851 10.0235 47.4705 9.41987C48.1761 8.81623 49.3453 7.85041 50.071 7.28702C50.7968 6.74374 52.1474 5.81816 53.0949 5.25476C54.0423 4.67125 55.6752 3.80603 56.7235 3.303C57.7717 2.79997 59.6263 2.0756 60.856 1.67317C62.0857 1.27075 64.0613 0.767713 65.291 0.5665C66.5207 0.345166 67.831 0.143953 68.214 0.10371C68.5971 0.0634678 70.2299 0.00310394 71.8426 0.00310394ZM64.7467 3.78591C63.7186 4.02736 61.9245 4.5304 60.7552 4.9127C59.586 5.31513 57.6911 6.1401 56.5219 6.74374C55.3527 7.34738 53.6795 8.35345 52.7925 8.97721C51.9055 9.60097 50.2323 11.0296 49.0832 12.1362C47.9342 13.2429 46.2812 15.0941 45.4143 16.2611C44.5273 17.4282 43.2976 19.4202 42.6324 20.6878C41.9873 21.9554 41.1608 23.8267 40.7979 24.8127C40.4552 25.7986 40.0117 27.3077 39.79 28.1327C39.5884 28.9577 39.2659 30.5875 39.0844 31.7545C38.903 32.9216 38.7014 34.994 38.6409 36.3824C38.5805 37.7909 38.6409 40.0043 38.7619 41.4127C38.903 42.8011 39.1449 44.6523 39.3062 45.5376C39.4675 46.423 39.8102 47.9723 40.0722 48.9582C40.3343 49.9442 40.8987 51.6344 41.3019 52.6807C41.7051 53.727 42.451 55.3568 42.9549 56.3025C43.4589 57.2482 44.4265 58.8378 45.0918 59.8237C45.8578 60.9304 47.3294 62.6407 48.9623 64.2504C50.3936 65.6992 52.4498 67.49 53.498 68.2344C54.5463 68.9789 56.4211 70.0856 57.6306 70.6892C58.8603 71.2728 60.6141 72.0374 61.5616 72.3593C62.5091 72.6813 64.2226 73.1642 65.3918 73.4257C67.2867 73.8684 67.9923 73.9087 72.2458 73.9087C76.076 73.9087 77.3057 73.8483 78.6967 73.5465C79.6441 73.3453 81.2165 72.9026 82.2245 72.6008C83.2324 72.2788 84.9056 71.6148 85.9539 71.1319C87.0021 70.649 88.6753 69.7435 89.6833 69.1198C90.6912 68.5161 92.3644 67.2887 93.4127 66.4034C94.4609 65.5181 95.872 64.1901 96.5574 63.4254C97.2227 62.6608 98.271 61.353 98.8757 60.528C99.5006 59.703 100.307 58.4756 100.71 57.8116C101.113 57.1476 101.799 55.88 102.242 54.9946C102.686 54.1093 103.331 52.5599 103.674 51.574C104.036 50.5881 104.54 48.8979 104.802 47.8516C105.044 46.8053 105.367 45.3565 105.488 44.6322C105.609 43.9078 105.79 42.0969 105.891 40.6079C106.032 38.8372 106.032 37.0665 105.891 35.477C105.79 34.149 105.508 32.0161 105.286 30.7485C105.044 29.4808 104.5 27.348 104.077 26.0199C103.633 24.6919 102.787 22.6194 102.202 21.392C101.597 20.1646 100.569 18.3537 99.9038 17.3678C99.2386 16.3818 97.9686 14.7319 97.1017 13.746C96.2147 12.76 94.8238 11.3918 93.9973 10.7076C93.1707 10.0235 91.7395 8.97721 90.792 8.37357C89.8445 7.74981 88.4536 6.94495 87.6674 6.54253C86.8812 6.16022 85.3491 5.51634 84.2404 5.09379C83.1316 4.69137 81.3173 4.12797 80.2086 3.86639C79.0998 3.60482 77.2452 3.303 76.076 3.18227C74.9068 3.08166 72.9111 2.98106 71.6411 3.00118C70.371 3.0213 68.718 3.10178 67.9721 3.20239C67.2061 3.303 65.7546 3.56457 64.7467 3.78591ZM56.3203 78.7378C58.9006 81.2328 60.7351 82.8224 62.0656 83.8888C63.3961 84.9351 66.178 87.0076 68.2745 88.4564C70.3509 89.9252 72.145 91.1124 72.2458 91.1124C72.3466 91.1124 73.2739 90.5087 74.2819 89.7441C75.2898 88.9996 77.729 87.2088 79.6844 85.74C81.6399 84.2912 84.3008 82.1383 85.6112 80.9712L87.9698 78.8384C87.9698 74.794 87.9496 73.6068 87.9294 73.6068C87.8891 73.6068 87.4255 73.808 86.861 74.0696C86.3167 74.3312 85.0467 74.8342 84.0388 75.1763C83.0308 75.5184 81.4584 75.9811 80.511 76.2025C79.5635 76.4439 77.85 76.7458 76.6808 76.9268C75.5116 77.0878 73.798 77.2287 72.8506 77.2287C71.9031 77.2287 70.1896 77.1281 69.0204 77.0275C67.8512 76.9067 66.2183 76.6653 65.3918 76.5043C64.5653 76.3433 63.013 75.9409 61.9648 75.619C60.9165 75.297 59.3038 74.7135 58.3967 74.3312C57.4693 73.9288 56.6428 73.6068 56.5219 73.6068C56.4009 73.6068 56.3203 74.5928 56.3203 76.1622V78.7378ZM90.6912 84.6735C90.5098 86.1826 90.1872 88.2954 89.9655 89.4021C89.7437 90.5087 89.2398 92.6818 88.8567 94.2312C88.4737 95.8006 87.7883 98.3158 87.3448 99.8651C86.9013 101.435 86.2159 103.728 85.8329 104.996C85.4297 106.284 84.4419 109.403 83.5953 111.938C82.7688 114.493 81.4987 118.256 80.773 120.288C80.0473 122.341 78.616 126.244 77.5879 128.94C76.5397 131.657 74.7052 136.546 73.4957 139.806C72.2861 143.086 71.1371 146.265 70.9557 146.909C70.7742 147.553 70.6331 148.136 70.6331 148.217C70.6331 148.297 71.5806 147.11 72.77 145.54C73.9593 143.991 76.4792 140.651 78.3943 138.096C80.2892 135.56 83.0711 131.798 84.5629 129.745C86.0547 127.713 88.2721 124.634 89.4817 122.904C90.6912 121.194 93.1708 117.572 94.9649 114.856L98.2306 109.926C97.0413 108.537 95.8116 107.129 94.7431 105.902C93.4933 104.493 92.8079 103.527 92.8079 103.246C92.8079 103.004 93.0296 102.561 93.3119 102.28C93.5941 102.018 94.1182 101.656 94.4609 101.495C94.8238 101.354 96.4768 100.569 98.15 99.7645C99.803 98.9798 101.557 98.1548 102.021 97.9335C102.807 97.5914 102.867 97.5109 102.766 97.0079C102.686 96.7061 102.424 95.7805 102.182 94.9354C101.94 94.1104 101.496 92.8026 101.214 92.0178C100.932 91.2532 100.408 89.9453 100.025 89.1002C99.6418 88.2753 98.8959 86.9271 98.3516 86.082C97.8275 85.2571 96.8598 83.9492 96.2349 83.1645C95.61 82.3998 94.4609 81.2529 93.6949 80.6493C92.9288 80.0255 92.062 79.3816 91.7395 79.1804C91.4371 78.9993 91.1549 78.8384 91.0944 78.8384C91.0339 78.8384 90.9936 79.5426 90.9936 80.4078C90.9936 81.273 90.8525 83.1846 90.6912 84.6735ZM49.2042 82.2389C48.3374 83.084 47.0674 84.5931 46.4021 85.579C45.7369 86.5851 44.8902 87.9936 44.5273 88.6978C44.1645 89.4222 43.5597 90.8709 43.1565 91.9172C42.7735 92.9837 42.2494 94.5933 42.0276 95.4988C41.7857 96.4043 41.6043 97.2896 41.6043 97.4506C41.6043 97.6317 41.6849 97.7524 41.8059 97.7524C41.9067 97.7524 43.0356 98.2353 44.2653 98.7987C45.5151 99.3621 47.531 100.288 48.7607 100.871C50.0509 101.475 51.1193 102.119 51.341 102.4C51.5225 102.662 51.6837 103.105 51.6837 103.346C51.6837 103.628 51.0387 104.513 49.9702 105.7C48.9018 106.887 48.3172 107.712 48.3978 107.873C48.4785 108.014 48.8615 108.537 49.2445 109.02C49.6275 109.523 50.2726 110.67 50.6758 111.535C51.0991 112.421 51.583 113.789 51.7845 114.554C51.966 115.338 52.228 116.827 52.3691 117.874L52.6111 119.785C54.9898 123.065 56.663 125.339 57.8725 126.969C59.0619 128.598 62.126 132.723 64.6862 136.144C67.2262 139.585 69.3631 142.341 69.4236 142.281C69.484 142.241 69.7461 141.496 70.0283 140.651L70.5525 139.102C69.1817 135.52 67.6496 131.355 66.2586 127.532C64.8677 123.729 62.6703 117.391 61.3399 113.447C60.0295 109.523 58.2757 103.91 57.429 100.972C56.5824 98.0542 55.655 94.6537 55.3728 93.4263C55.1108 92.219 54.7076 90.2673 54.4858 89.1002C54.2842 87.9533 53.9617 85.6997 53.8004 84.1303C53.6392 82.5608 53.498 80.77 53.498 80.1463C53.498 79.4018 53.4174 79.0597 53.236 79.0597C53.115 79.0597 52.4901 79.4219 51.8853 79.8847C51.2806 80.3273 50.071 81.3938 49.2042 82.2389ZM83.938 86.2028C83.1115 86.8869 80.6722 88.6777 78.5354 90.1868C76.4187 91.6959 74.6649 93.0038 74.6649 93.0843C74.6649 93.1647 75.4108 93.869 76.3179 94.6336C77.2452 95.4183 79.3216 97.2896 80.9545 98.8188C83.555 101.233 83.938 101.535 84.0186 101.133C84.0589 100.891 84.5629 98.9999 85.1273 96.9475C85.6918 94.9153 86.4578 91.7764 86.8409 90.0057C87.2239 88.2551 87.6472 85.9613 87.7682 84.9351C87.9093 83.9089 87.9697 83.0236 87.9294 82.9834C87.869 82.923 87.3045 83.3657 86.6393 83.9291C85.974 84.5126 84.7645 85.5388 83.938 86.2028ZM56.8041 85.8406C56.9855 87.0277 57.2879 88.6777 57.4492 89.5027C57.6306 90.3478 58.0338 92.0983 58.3563 93.4263C58.699 94.7744 59.3441 97.1689 59.7876 98.7585C60.2311 100.368 60.6343 101.716 60.6746 101.736C60.7149 101.757 61.0576 101.455 61.4003 101.052C61.7632 100.65 63.3759 99.0804 64.9886 97.5713C66.6013 96.0823 68.3551 94.4525 68.9196 93.9897C69.8872 93.1647 69.9074 93.1446 69.5244 92.8428C69.3026 92.6818 67.9923 91.7562 66.6013 90.7904C65.2104 89.8246 63.2146 88.396 62.1664 87.6113C61.1181 86.8466 59.4046 85.4985 58.3765 84.6333C57.3686 83.7681 56.4614 83.0638 56.3808 83.0638C56.3203 83.0638 56.3001 83.2047 56.3606 83.3657C56.4211 83.5266 56.6227 84.6333 56.8041 85.8406ZM70.1493 96.7463C68.5567 98.0945 68.0326 98.6579 68.1334 98.9194C68.1939 99.1206 68.6979 100.268 69.2623 101.475L70.2702 103.688L74.2617 103.789C74.5842 102.944 75.1084 101.797 75.6325 100.71L76.58 98.7182C74.7052 97.028 73.7376 96.1628 73.2336 95.7403L72.2861 94.9354L70.1493 96.7463ZM40.6971 102.3L40.556 103.688C42.2292 104.07 43.4388 104.553 44.3257 104.996L45.9385 105.781C47.4101 104.171 47.8334 103.628 47.8536 103.547C47.8536 103.447 47.6923 103.346 47.5109 103.306C47.3093 103.266 45.7973 102.622 44.1242 101.897C42.4711 101.153 41.0802 100.569 41.06 100.569C41.0398 100.569 40.9794 100.65 40.9189 100.75C40.8786 100.851 40.7778 101.555 40.6971 102.3ZM76.5397 105.499C78.1927 113.93 78.6765 116.586 78.6967 116.868C78.6967 117.169 78.7571 117.29 78.8579 117.169C78.9587 117.069 79.8659 114.292 80.8738 111.032C81.9019 107.773 82.7284 104.976 82.7284 104.855C82.7284 104.714 81.8616 103.728 80.8133 102.682C79.7651 101.636 78.8579 100.771 78.8176 100.771C78.7773 100.771 78.2532 101.837 77.6484 103.145L76.5397 105.499ZM61.5616 104.795C63.4767 110.791 64.3637 113.588 64.7669 114.876C65.17 116.163 65.5732 117.29 65.6539 117.391C65.7345 117.491 65.795 117.33 65.795 117.069C65.795 116.787 66.2788 114.111 66.8835 111.133L67.9923 105.7C66.2183 102.018 65.6539 100.952 65.5934 100.972C65.5329 100.972 64.6056 101.837 63.5372 102.883L61.5616 104.795ZM70.2501 108.417C70.1291 109.242 69.4639 112.783 68.7785 116.264L67.5488 122.602C70.5928 131.013 71.6209 133.83 71.7822 134.273C72.0039 134.856 72.1249 134.997 72.2458 134.776C72.3265 134.615 73.2739 132.12 74.3423 129.242C75.4108 126.365 76.4389 123.649 76.6001 123.206C76.8622 122.542 76.8824 122.2 76.7009 121.395C76.58 120.832 75.9349 117.491 75.2697 113.95C74.6044 110.409 74.04 107.29 74.0198 107.008C73.9593 106.525 73.8988 106.505 72.2861 106.445C71.0766 106.405 70.6129 106.445 70.5525 106.646C70.492 106.787 70.371 107.592 70.2501 108.417ZM101.678 125.319C101.295 125.6 100.65 126.224 100.267 126.727C99.8635 127.23 99.3595 128.136 99.1579 128.739C98.916 129.443 98.7749 130.349 98.7951 131.254C98.7951 132.2 98.9564 133.045 99.2789 133.87C99.5813 134.635 100.065 135.399 100.65 135.983C101.154 136.486 102.021 137.13 102.585 137.391C103.129 137.653 103.956 137.935 104.399 138.015C104.843 138.096 105.77 138.075 106.455 137.975C107.141 137.874 108.169 137.572 108.733 137.291C109.278 137.009 110.124 136.405 110.588 135.923C111.072 135.46 111.677 134.615 111.959 134.071C112.382 133.206 112.443 132.784 112.443 131.053C112.463 129.423 112.382 128.86 112.019 128.136C111.798 127.633 111.213 126.787 110.709 126.244C110.205 125.701 109.358 125.057 108.733 124.755C107.887 124.353 107.242 124.212 106.012 124.152C104.843 124.111 104.117 124.192 103.391 124.453C102.827 124.655 102.061 125.037 101.678 125.319ZM122.603 130.731C122.885 130.792 123.228 131.033 123.349 131.254C123.55 131.556 123.651 136.104 123.752 151.174C123.873 165.762 123.853 170.813 123.671 171.135C123.55 171.396 123.268 171.678 123.046 171.799C122.784 171.92 122.401 171.94 121.978 171.799C121.615 171.698 121.252 171.477 121.171 171.296C121.091 171.135 120.95 162.141 120.869 151.295C120.748 135.017 120.768 131.556 120.99 131.254C121.131 131.073 121.454 130.832 121.675 130.751C121.897 130.671 122.321 130.671 122.603 130.731ZM114.882 142.019L115.789 142.925V164.052L115.225 165.139C114.922 165.742 114.317 166.547 113.874 166.909C113.43 167.292 112.584 167.754 111.999 167.976C111.011 168.358 110.386 168.378 102.424 168.378C95.4689 168.378 93.7352 168.318 93.0095 168.076C92.5055 167.915 91.6387 167.392 91.0944 166.909C90.4695 166.386 89.905 165.642 89.6429 165.038C89.1994 164.072 89.1994 163.831 89.0785 142.784L89.5421 142.402C90.0058 142.039 90.5098 142.019 114.882 142.019ZM91.8403 154.535C91.9007 162.744 91.9411 163.71 92.2434 164.294C92.445 164.656 92.8684 165.098 93.2111 165.259C93.715 165.501 95.1866 165.561 102.524 165.561H111.253C112.443 164.776 112.705 164.394 112.906 163.75C113.088 163.066 113.148 160.712 113.108 153.891L113.068 144.937C93.453 144.836 91.9814 144.876 91.8806 145.118C91.8403 145.279 91.8201 149.525 91.8403 154.535ZM21.9897 150.671C22.2921 150.671 22.7557 150.792 23.4613 151.275V171.195L22.8968 171.598C22.5945 171.819 22.1308 172 21.8889 172C21.6268 172 21.264 171.759 21.0221 171.437C20.6189 170.913 20.6189 170.632 20.6189 161.175C20.639 151.738 20.639 151.456 21.0422 151.074C21.264 150.853 21.6873 150.671 21.9897 150.671ZM59.5457 34.7928C60.3117 34.7928 60.5537 34.8934 61.1786 35.5373C61.6221 35.98 62.0051 36.644 62.1462 37.1873C62.2873 37.7104 62.3478 38.475 62.2672 38.9982C62.2067 39.5012 61.9849 40.2055 61.8035 40.5878C61.6019 40.9701 61.1786 41.453 60.856 41.6944C60.473 41.956 59.9287 42.117 59.4248 42.117C58.9813 42.117 58.3765 41.956 58.0741 41.7548C57.7717 41.5737 57.3282 41.0304 57.0863 40.5475C56.7638 39.964 56.6227 39.3403 56.6227 38.4952C56.6227 37.6501 56.7638 37.0062 57.0662 36.3824C57.3081 35.8794 57.7516 35.316 58.0741 35.1349C58.3765 34.9337 59.0216 34.7727 59.5457 34.7928ZM85.3693 34.813C85.9337 34.8532 86.478 35.0343 86.7602 35.2757C87.0021 35.4971 87.3851 36.0404 87.5867 36.483C87.8085 36.9458 87.9496 37.7507 87.9496 38.3946C87.9496 39.0384 87.8085 39.8232 87.5867 40.3061C87.3851 40.7487 87.0021 41.3121 86.7199 41.5737C86.4578 41.8152 85.8934 42.0767 85.4499 42.1371C84.8048 42.2176 84.4823 42.1572 83.938 41.7749C83.5348 41.5134 83.0107 40.8896 82.7688 40.4067C82.4664 39.7829 82.3253 39.1592 82.3253 38.3946C82.3253 37.7305 82.4865 36.9458 82.7284 36.4227C82.9502 35.9599 83.4138 35.3965 83.7767 35.155C84.2605 34.8532 84.6839 34.7727 85.3693 34.813ZM62.0656 53.4855C62.3478 53.4855 63.0937 53.9081 63.8194 54.4916C64.5048 55.055 65.674 55.8196 66.3997 56.1818C67.1053 56.5641 68.2544 57.0068 68.9196 57.1677C69.5848 57.3287 70.6331 57.5299 71.2782 57.5903C71.9636 57.6506 73.153 57.5903 74.2012 57.4092C75.4511 57.1878 76.4993 56.8458 77.7895 56.222C78.7773 55.719 80.0675 54.9141 80.6521 54.4111C81.3576 53.7873 81.9019 53.4855 82.2648 53.4855C82.5672 53.4855 83.0308 53.6867 83.2727 53.9483C83.5751 54.23 83.7364 54.6324 83.7364 55.0349C83.7364 55.5781 83.5348 55.88 82.668 56.6446C82.0632 57.1677 80.9545 57.9927 80.1884 58.4555C79.4224 58.9183 78.0717 59.5219 77.1847 59.8237C76.2978 60.1054 74.8866 60.4073 74.0601 60.528C73.0723 60.6487 71.9031 60.6487 70.7339 60.5079C69.726 60.4073 68.4156 60.1658 67.8109 59.9847C67.1859 59.8237 66.057 59.3609 65.291 58.9786C64.5048 58.5762 63.517 58.0128 63.0735 57.711C62.63 57.4092 61.864 56.7452 61.4003 56.222C60.9367 55.719 60.5335 55.1556 60.5133 55.0147C60.5133 54.8538 60.7351 54.4514 61.0375 54.1093C61.36 53.727 61.7833 53.4855 62.0656 53.4855ZM105.75 127.532C106.173 127.532 106.798 127.653 107.161 127.793C107.524 127.934 108.108 128.417 108.471 128.86C108.895 129.363 109.177 129.946 109.258 130.55C109.338 131.093 109.278 131.737 109.137 132.16C108.995 132.542 108.633 133.126 108.35 133.427C108.048 133.749 107.564 134.132 107.262 134.293C106.959 134.454 106.294 134.574 105.81 134.574C105.306 134.574 104.641 134.454 104.339 134.293C104.036 134.152 103.532 133.729 103.23 133.387C102.928 133.045 102.605 132.462 102.504 132.099C102.404 131.737 102.363 131.174 102.404 130.852C102.464 130.51 102.545 130.047 102.585 129.786C102.645 129.544 102.887 129.061 103.149 128.719C103.411 128.357 103.936 127.954 104.319 127.814C104.681 127.673 105.327 127.532 105.75 127.532ZM105.064 131.093C105.085 131.355 105.286 131.637 105.508 131.757C105.73 131.858 106.093 131.918 106.314 131.858C106.576 131.778 106.718 131.576 106.718 131.194C106.718 130.892 106.597 130.53 106.455 130.389C106.314 130.248 106.072 130.148 105.891 130.148C105.73 130.148 105.448 130.248 105.306 130.389C105.145 130.51 105.024 130.832 105.064 131.093Z" fill="#1A73E8"/>
</svg>
