<svg width="138" height="151" viewBox="0 0 138 151" fill="none" xmlns="http://www.w3.org/2000/svg">
<path fill-rule="evenodd" clip-rule="evenodd" d="M68.5011 0.00295957C70.0388 -0.0162259 72.0186 0.0605159 72.922 0.156443C73.8254 0.271556 75.3247 0.520966 76.2857 0.732006C77.2468 0.92386 78.8806 1.36512 79.9378 1.69128C80.9949 2.03661 82.8594 2.78485 84.0704 3.36041C85.2813 3.93597 87.1073 4.93361 88.1068 5.6051C89.1063 6.25741 90.7017 7.44691 91.6628 8.25269C92.6238 9.05848 93.9693 10.3439 94.6613 11.1113C95.3532 11.8979 96.2759 13.0107 96.7179 13.5862C97.1408 14.1618 98.0442 15.5432 98.717 16.6559C99.3897 17.7687 100.408 19.7448 100.966 21.0686C101.523 22.3924 102.273 24.5795 102.619 25.9608C102.984 27.3422 103.407 29.491 103.58 30.7572C103.83 32.5606 103.887 33.9804 103.811 37.2802C103.734 40.8679 103.657 41.8848 103.215 44.0911C102.926 45.5108 102.292 47.8514 101.812 49.2711C101.35 50.6909 100.466 52.8588 99.8702 54.0675C99.2744 55.2762 98.2172 57.0988 97.5445 58.0964C96.8717 59.0941 95.7953 60.5714 95.1226 61.358C94.4691 62.1446 93.2966 63.3916 92.5085 64.1207C91.7204 64.8497 90.4326 65.9241 89.6445 66.538C88.8564 67.1328 87.8377 67.8618 86.5691 68.6484L86.6652 71.9291L88.0299 72.639C88.7603 73.0227 89.856 73.6942 90.4326 74.1355C90.99 74.5575 92.1433 75.536 92.9698 76.2842C93.7771 77.0516 94.5652 77.6656 94.6997 77.6656C94.815 77.6656 96.3527 78.2028 98.1019 78.8934C99.851 79.5649 102.58 80.6777 104.157 81.3492C105.752 82.0398 107.597 82.8456 108.289 83.1526C108.981 83.4596 110.711 84.2654 112.133 84.9752C113.556 85.6659 115.555 86.7019 116.554 87.2583C117.554 87.8147 119.245 88.8507 120.283 89.5414C121.321 90.232 123.013 91.4983 124.012 92.3424C125.031 93.1866 126.415 94.5296 127.088 95.3162C127.76 96.1028 128.644 97.2347 129.048 97.8103C129.433 98.3858 130.163 99.6329 130.624 100.592C131.105 101.551 131.758 103.144 132.085 104.141C132.412 105.139 132.892 107 133.142 108.266C133.411 109.533 133.853 111.988 134.123 113.734C134.392 115.48 134.815 119.01 135.084 121.6C135.353 124.19 135.718 127.893 135.872 129.85C136.025 131.807 136.275 135.433 136.448 137.908C136.602 140.383 136.852 144.795 137.006 147.692C137.16 150.589 137.409 155.232 137.794 163.041L137.371 163.444C137.14 163.693 136.698 163.885 136.371 163.885C136.025 163.904 135.622 163.751 135.41 163.52C135.064 163.175 135.007 162.715 134.834 159.108C134.718 156.901 134.488 152.393 134.334 149.131C134.18 145.87 134.007 142.8 133.95 142.32C133.892 141.841 133.757 139.941 133.661 138.1C133.546 136.258 133.277 132.632 133.065 130.042C132.854 127.452 132.508 123.749 132.316 121.792C132.104 119.835 131.72 116.785 131.451 114.981C131.182 113.178 130.663 110.377 130.278 108.746C129.894 107.115 129.375 105.139 129.125 104.372C128.875 103.623 128.375 102.415 128.01 101.686C127.645 100.976 126.895 99.748 126.338 98.9614C125.8 98.1748 124.627 96.8318 123.781 95.9877C122.917 95.1435 121.302 93.7813 120.206 92.9372C119.092 92.1122 117.323 90.9227 116.266 90.2896C115.209 89.6565 112.921 88.4286 111.172 87.5653C109.423 86.7019 106.136 85.2054 103.868 84.2462C101.6 83.2869 99.0437 82.2317 98.198 81.9056C97.3522 81.5602 96.6411 81.33 96.6411 81.3492C96.6218 81.3875 96.9678 82.059 97.4099 82.8456C97.852 83.6322 98.4863 84.9752 98.8131 85.8194C99.1398 86.6635 99.678 88.2559 100.005 89.3687C100.312 90.4814 100.754 92.2465 100.966 93.3017C101.177 94.3569 101.504 96.3905 101.677 97.8103C101.908 99.748 101.985 102.338 102.042 115.634L102.811 115.768C103.234 115.825 103.926 116.017 104.349 116.19C104.772 116.343 105.617 116.842 106.232 117.264C106.867 117.706 107.693 118.473 108.097 119.01C108.501 119.528 109 120.334 109.231 120.775C109.442 121.236 109.769 122.099 109.923 122.694C110.077 123.308 110.211 124.325 110.211 124.958C110.211 125.591 110.077 126.646 109.923 127.298C109.769 127.97 109.5 128.795 109.327 129.121C109.154 129.466 108.654 130.214 108.212 130.79C107.789 131.366 106.905 132.191 106.271 132.651C105.637 133.092 104.637 133.649 104.06 133.879C103.388 134.147 102.407 134.339 101.369 134.397C100.466 134.454 99.2552 134.397 98.6785 134.282C98.1019 134.167 97.0639 133.802 96.372 133.457C95.6223 133.073 94.6805 132.363 94.0078 131.673C93.3927 131.039 92.6623 130.08 92.4124 129.562C92.1625 129.025 91.8165 128.123 91.6628 127.548C91.509 126.972 91.3744 125.84 91.3744 125.054C91.3744 124.267 91.509 123.097 91.682 122.464C91.855 121.83 92.1817 120.929 92.4316 120.449C92.6623 119.969 93.2966 119.106 93.8155 118.531C94.4114 117.878 95.2764 117.207 96.1029 116.765C96.8333 116.382 97.852 115.96 99.3128 115.557L99.1975 108.074C99.1398 103.95 98.9861 99.6904 98.8899 98.5777C98.7746 97.4649 98.6401 96.3714 98.5824 96.122C98.4863 95.7191 98.4094 95.7382 96.0452 96.9277C94.6805 97.5992 93.2581 98.2899 92.8737 98.4626C92.47 98.6353 92.1433 98.8271 92.1433 98.9038C92.1625 98.9998 93.0467 100.055 94.1231 101.264C95.2187 102.472 96.2566 103.681 96.4296 103.95C96.6026 104.218 96.7564 104.602 96.7564 104.813C96.7564 105.024 96.1797 106.098 95.4686 107.211C94.7382 108.324 92.7776 111.259 91.1053 113.734C89.4139 116.209 86.473 120.392 84.5893 123.039C82.6864 125.668 78.8998 130.771 76.1896 134.359C73.4794 137.946 70.2887 142.109 69.1162 143.606C67.9245 145.122 66.925 146.541 66.8865 146.771C66.8289 147.021 66.752 150.839 66.6174 163.329L66.1561 163.674C65.9062 163.885 65.4834 164 65.1566 163.962C64.8491 163.923 64.4454 163.693 64.234 163.424C63.8688 162.964 63.8688 162.657 64.0418 152.681C64.2148 143.28 64.2724 142.282 65.0413 139.059L63.7535 137.275C63.0423 136.315 60.9856 133.514 59.1788 131.097C57.372 128.68 54.6426 124.977 53.1241 122.905C51.5864 120.814 50.337 119.125 50.3178 119.164C50.3178 119.183 50.3755 123.039 50.4523 127.74C50.5292 132.632 50.51 136.833 50.4139 137.562C50.3178 138.292 50.0295 139.328 49.7796 139.865C49.5105 140.421 48.9339 141.304 48.4726 141.822C47.9344 142.416 47.204 142.954 46.3967 143.337C45.6278 143.702 44.7436 143.97 44.0901 144.028C43.2636 144.086 42.8984 144.22 42.4179 144.642C42.0719 144.949 41.5529 145.217 41.2646 145.237C40.957 145.237 40.5149 145.237 40.2458 145.217C39.9768 145.198 39.5731 145.045 39.3425 144.891C39.0926 144.738 38.7274 144.335 38.5159 143.99C38.3045 143.663 38.1315 143.088 38.1315 142.743C38.1315 142.416 38.2661 141.822 38.4198 141.457C38.5736 141.093 38.9965 140.613 39.3425 140.402C39.6692 140.191 40.2651 140.018 40.6303 140.018C41.0531 140.018 41.6682 140.248 42.2641 140.632C43.0714 141.15 43.3405 141.208 43.994 141.112C44.4169 141.035 45.1473 140.747 45.6086 140.459C46.166 140.114 46.6658 139.558 47.646 137.812L47.7037 131.864C47.7421 128.603 47.6845 124.094 47.5499 121.888C47.4346 119.682 47.2616 116.439 47.1655 114.693C47.0502 112.679 46.8387 110.971 46.5889 109.993C46.3774 109.149 45.9546 107.94 45.647 107.307C45.3587 106.674 44.7244 105.676 44.2439 105.101C43.7826 104.525 42.8215 103.681 42.1488 103.24C41.476 102.779 40.3612 102.242 39.6692 102.031C38.8235 101.762 37.8816 101.628 36.786 101.628C35.5943 101.628 34.8447 101.743 33.9989 102.031C33.3646 102.261 32.3651 102.779 31.7885 103.163C31.2119 103.566 30.3085 104.391 29.7895 105.024C29.2897 105.638 28.617 106.693 28.3094 107.345C28.0019 108.017 27.579 109.264 27.3676 110.127C27.0985 111.278 26.9063 113.255 26.6756 117.379C26.5026 120.487 26.3489 126.281 26.3297 130.234C26.3104 135.893 26.3681 137.601 26.5795 138.196C26.7141 138.618 27.0408 139.251 27.2907 139.577C27.5406 139.922 28.0788 140.364 28.4824 140.575C28.8669 140.766 29.5204 140.977 29.924 141.054C30.5007 141.15 30.8467 141.054 31.75 140.575C32.6535 140.076 32.9802 139.98 33.6145 140.076C34.1143 140.153 34.5948 140.402 35.0177 140.824C35.5174 141.323 35.6904 141.668 35.7673 142.416C35.8634 143.184 35.8057 143.51 35.4982 144.047C35.2675 144.412 34.8447 144.853 34.5564 145.006C34.268 145.16 33.7298 145.294 33.3454 145.275C32.9033 145.275 32.4036 145.083 31.9807 144.757C31.4617 144.373 31.0389 144.22 30.1547 144.162C29.4435 144.124 28.5785 143.894 27.9058 143.587C27.2907 143.318 26.3489 142.685 25.8107 142.167C25.2725 141.668 24.6766 140.997 24.4844 140.69C24.2922 140.383 23.9847 139.673 23.8117 139.155C23.5041 138.292 23.4849 137.256 23.5041 128.891C23.5233 123.768 23.6195 118.166 23.7156 116.42C23.8309 114.674 24.0039 112.564 24.1192 111.72C24.2345 110.876 24.5421 109.456 24.8112 108.554C25.061 107.652 25.5992 106.329 25.9837 105.58C26.4642 104.659 27.2523 103.681 28.4248 102.492C29.7703 101.149 30.4814 100.592 31.5963 100.055C32.3843 99.6713 33.5761 99.2492 34.2296 99.1149C34.8831 98.9806 35.4982 98.7695 35.5943 98.6736C35.6904 98.5777 35.8634 97.7527 35.9979 96.851C36.1325 95.9493 36.4208 94.3569 36.613 93.3017C36.8245 92.2465 37.2473 90.5198 37.5549 89.4646C37.8624 88.4094 38.4198 86.7787 38.8043 85.8194C39.1887 84.8601 39.8422 83.5171 40.2651 82.7881C40.6687 82.0782 40.9955 81.4643 40.9763 81.4259C40.9378 81.3684 39.5731 81.8672 37.9393 82.5387C36.3055 83.2102 33.4415 84.4188 31.5963 85.2246C29.751 86.0496 26.9832 87.3734 25.4455 88.16C23.9078 88.9658 21.755 90.1937 20.6402 90.8651C19.5253 91.5558 17.9684 92.611 17.1803 93.2058C16.3923 93.8197 15.1621 94.8557 14.4701 95.5272C13.7782 96.1987 12.7787 97.2731 12.2597 97.9062C11.7407 98.5393 10.9526 99.6521 10.5105 100.4C10.0685 101.149 9.39571 102.434 9.03051 103.278C8.6653 104.122 8.14633 105.638 7.87723 106.636C7.62735 107.633 7.26215 109.11 7.10838 109.897C6.95461 110.684 6.64707 112.506 6.43564 113.926C6.2242 115.346 5.87822 117.974 5.66678 119.778C5.45535 121.581 5.0517 125.802 4.78261 129.178C4.53273 132.555 4.12908 138.08 3.91765 141.457C3.70621 144.834 3.39867 149.592 3.2449 152.009C3.09113 154.426 2.91814 157.88 2.84126 159.683C2.78359 161.487 2.64904 163.098 2.55294 163.271C2.45683 163.463 2.20695 163.712 1.99552 163.808C1.74564 163.923 1.39966 163.942 0.996015 163.808C0.592368 163.693 0.265607 163.444 0.111837 163.098C-0.0803762 162.657 -0.0419336 161.045 0.361713 153.928C0.630811 149.17 1.01524 142.57 1.22667 139.251C1.4381 135.932 1.78409 131.135 1.99552 128.603C2.20695 126.07 2.41839 123.557 2.47605 123.039C2.53372 122.502 2.70671 120.91 2.86048 119.49C3.01425 118.07 3.4179 115.173 3.74466 113.063C4.0522 110.952 4.53273 108.362 4.80183 107.307C5.07092 106.252 5.49379 104.736 5.76289 103.95C6.03199 103.163 6.62785 101.743 7.08916 100.784C7.53125 99.8247 8.41543 98.3475 9.04973 97.5033C9.66481 96.64 10.6067 95.4697 11.1256 94.8941C11.6638 94.3185 12.7018 93.3017 13.4322 92.6494C14.1818 91.9779 16.2 90.5006 17.9492 89.3303C20.102 87.8914 22.5046 86.5292 25.4455 85.0712C27.8289 83.9008 31.0773 82.3852 32.6535 81.7137C34.2488 81.0422 37.0551 79.9103 38.9004 79.2004C40.7456 78.4905 42.6101 77.7999 43.0329 77.6656C43.5135 77.5121 44.34 76.9173 45.2434 76.054C46.0315 75.3058 47.2424 74.2889 47.9344 73.7901C48.6263 73.3105 49.5874 72.6965 50.1064 72.4663C50.9713 72.0251 51.0098 71.9675 51.0098 71.2385C51.0098 70.8164 51.0674 70.0298 51.2212 68.5525L50.2986 67.9769C49.7988 67.67 48.857 67.0177 48.2227 66.538C47.5884 66.0584 46.2237 64.8497 45.1665 63.8521C44.1285 62.8544 42.6677 61.2428 41.9373 60.3028C41.1877 59.3627 40.1305 57.847 39.5731 56.9453C39.0349 56.0436 38.3045 54.7965 37.997 54.1634C37.6702 53.5303 37.0551 52.0722 36.613 50.9019C36.1902 49.7316 35.5751 47.7939 35.2675 46.5852C34.96 45.3765 34.5564 43.3812 34.3641 42.1725C34.1335 40.6377 34.0182 38.8535 34.0182 36.321C34.0182 34.2873 34.1335 31.9083 34.268 30.9491C34.4026 30.009 34.6909 28.3974 34.8831 27.3998C35.0946 26.4021 35.6135 24.5411 36.0364 23.2749C36.4785 22.0086 37.2473 20.1093 37.7471 19.0541C38.2468 17.9989 39.1887 16.3489 39.8038 15.4089C40.4381 14.4688 41.649 12.8572 42.514 11.8596C43.3597 10.8619 44.6091 9.5573 45.2626 8.98174C45.9353 8.40618 47.0502 7.48528 47.7421 6.94808C48.4341 6.43008 49.7219 5.54755 50.6253 5.01036C51.5287 4.45398 53.0857 3.62901 54.0852 3.14937C55.0847 2.66973 56.853 1.97906 58.0255 1.59535C59.198 1.21164 61.0817 0.732006 62.2542 0.540152C63.4267 0.329112 64.6761 0.137258 65.0413 0.0988867C65.4065 0.0605158 66.9634 0.00295957 68.5011 0.00295957ZM61.7352 3.60982C60.7549 3.84005 59.0443 4.31968 57.9294 4.6842C56.8146 5.06791 55.0078 5.85452 53.893 6.43008C52.7781 7.00564 51.1828 7.96491 50.337 8.55966C49.4913 9.15441 47.8959 10.5166 46.8003 11.5718C45.7047 12.627 44.1285 14.392 43.302 15.5048C42.4563 16.6175 41.2838 18.5169 40.6495 19.7256C40.0344 20.9343 39.2463 22.7185 38.9004 23.6586C38.5736 24.5987 38.1507 26.0376 37.9393 26.8242C37.7471 27.6108 37.4395 29.1648 37.2666 30.2776C37.0936 31.3903 36.9014 33.3664 36.8437 34.6902C36.786 36.0332 36.8437 38.1436 36.959 39.4866C37.0936 40.8104 37.3242 42.5754 37.478 43.4196C37.6318 44.2637 37.9585 45.741 38.2084 46.6811C38.4583 47.6212 38.9965 49.2328 39.3809 50.2304C39.7653 51.2281 40.4765 52.7821 40.957 53.6838C41.4376 54.5855 42.3602 56.1012 42.9945 57.0412C43.7249 58.0964 45.1281 59.7272 46.685 61.262C48.0497 62.6434 50.0103 64.3509 51.0098 65.0607C52.0093 65.7706 53.7968 66.8258 54.9501 67.4014C56.1226 67.9577 57.7949 68.6868 58.6983 68.9938C59.6017 69.3007 61.2355 69.7612 62.3503 70.0106C64.1571 70.4327 64.8299 70.471 68.8855 70.471C72.5376 70.471 73.7101 70.4135 75.0364 70.1257C75.9398 69.9338 77.439 69.5118 78.4001 69.224C79.3611 68.917 80.9565 68.2839 81.956 67.8234C82.9555 67.363 84.5509 66.4996 85.5119 65.9049C86.473 65.3293 88.0684 64.159 89.0679 63.3149C90.0674 62.4707 91.4129 61.2045 92.0664 60.4754C92.7007 59.7464 93.7002 58.4993 94.2768 57.7127C94.8727 56.9261 95.6416 55.7558 96.026 55.1227C96.4104 54.4896 97.0639 53.2809 97.4868 52.4367C97.9097 51.5926 98.5247 50.1153 98.8515 49.1752C99.1975 48.2351 99.678 46.6236 99.9279 45.6259C100.159 44.6283 100.466 43.2469 100.581 42.5562C100.697 41.8656 100.87 40.1389 100.966 38.7192C101.1 37.0308 101.1 35.3425 100.966 33.8269C100.87 32.5606 100.601 30.527 100.389 29.3183C100.159 28.1096 99.6396 26.076 99.2359 24.8097C98.8131 23.5435 98.0058 21.5674 97.4484 20.3971C96.8717 19.2268 95.8914 17.5001 95.2571 16.56C94.6228 15.6199 93.4119 14.0467 92.5854 13.1066C91.7396 12.1665 90.4134 10.8619 89.6253 10.2096C88.8372 9.5573 87.4725 8.55966 86.5691 7.9841C85.6657 7.38935 84.3394 6.62193 83.5898 6.23822C82.8402 5.8737 81.3794 5.25977 80.3222 4.85687C79.265 4.47316 77.5351 3.93597 76.478 3.68656C75.4208 3.43715 73.6524 3.14937 72.5376 3.03426C71.4228 2.93833 69.5199 2.8424 68.3089 2.86159C67.098 2.88077 65.5218 2.95752 64.8106 3.05344C64.0802 3.14937 62.6963 3.39878 61.7352 3.60982ZM53.7007 75.0755C56.1611 77.4545 57.9102 78.9702 59.1788 79.987C60.4474 80.9847 63.0999 82.9607 65.099 84.3421C67.0787 85.7426 68.7894 86.8746 68.8855 86.8746C68.9817 86.8746 69.8658 86.299 70.8269 85.57C71.788 84.8601 74.1137 83.1526 75.9782 81.7521C77.8427 80.3707 80.3799 78.3179 81.6292 77.2051L83.8781 75.1715C83.8781 71.3152 83.8589 70.1833 83.8397 70.1833C83.8012 70.1833 83.3592 70.3751 82.821 70.6245C82.302 70.8739 81.0911 71.3536 80.13 71.6797C79.1689 72.0059 77.6697 72.4471 76.7663 72.6582C75.8629 72.8884 74.2291 73.1762 73.1142 73.3489C71.9994 73.5023 70.3656 73.6366 69.4622 73.6366C68.5588 73.6366 66.925 73.5407 65.8101 73.4448C64.6953 73.3297 63.1384 73.0994 62.3503 72.946C61.5622 72.7925 60.0822 72.4088 59.0827 72.1018C58.0832 71.7948 56.5455 71.2385 55.6805 70.8739C54.7964 70.4902 54.0083 70.1833 53.893 70.1833C53.7776 70.1833 53.7007 71.1233 53.7007 72.6198V75.0755ZM86.473 80.7352C86.3 82.1741 85.9925 84.1886 85.781 85.2438C85.5696 86.299 85.0891 88.371 84.7239 89.8483C84.3587 91.3448 83.7051 93.743 83.2823 95.2202C82.8594 96.7167 82.2059 98.9038 81.8407 100.113C81.4563 101.34 80.5144 104.314 79.7071 106.731C78.919 109.168 77.7081 112.756 77.0161 114.693C76.3242 116.65 74.9595 120.372 73.9792 122.943C72.9797 125.533 71.2305 130.195 70.0773 133.303C68.924 136.431 67.8284 139.462 67.6554 140.076C67.4824 140.69 67.3478 141.246 67.3478 141.323C67.3478 141.4 68.2512 140.268 69.3853 138.771C70.5194 137.294 72.922 134.109 74.748 131.673C76.5548 129.255 79.2074 125.668 80.6297 123.711C82.0521 121.773 84.1665 118.838 85.3197 117.188C86.473 115.557 88.8372 112.103 90.5479 109.513L93.6618 104.813C92.5277 103.489 91.3552 102.146 90.3365 100.976C89.1448 99.6329 88.4912 98.712 88.4912 98.4434C88.4912 98.2132 88.7027 97.7911 88.9718 97.5225C89.2409 97.2731 89.7406 96.9277 90.0674 96.7743C90.4134 96.64 91.9895 95.8917 93.5849 95.1243C95.161 94.3761 96.8333 93.5895 97.2754 93.3784C98.025 93.0523 98.0827 92.9755 97.9865 92.4959C97.9097 92.2081 97.6598 91.3256 97.4291 90.5198C97.1985 89.7332 96.7756 88.4862 96.5065 87.7379C96.2374 87.0089 95.7377 85.7618 95.3725 84.956C95.0072 84.1694 94.2961 82.884 93.7771 82.0782C93.2773 81.2916 92.3547 80.0446 91.7589 79.2963C91.163 78.5673 90.0674 77.4737 89.337 76.8982C88.6066 76.3034 87.7801 75.6895 87.4725 75.4976C87.1842 75.325 86.9151 75.1715 86.8574 75.1715C86.7998 75.1715 86.7613 75.843 86.7613 76.6679C86.7613 77.4929 86.6268 79.3155 86.473 80.7352ZM46.9156 78.4138C46.0891 79.2196 44.8782 80.6585 44.2439 81.5986C43.6096 82.5579 42.8023 83.9008 42.4563 84.5723C42.1103 85.263 41.5337 86.6444 41.1493 87.642C40.784 88.6588 40.2843 90.1937 40.0729 91.057C39.8422 91.9203 39.6692 92.7645 39.6692 92.918C39.6692 93.0907 39.7461 93.2058 39.8614 93.2058C39.9575 93.2058 41.0339 93.6662 42.2064 94.2034C43.3981 94.7406 45.3203 95.6231 46.4928 96.1795C47.7229 96.7551 48.7417 97.369 48.9531 97.6376C49.1261 97.887 49.2799 98.3091 49.2799 98.5393C49.2799 98.8079 48.6648 99.6521 47.646 100.784C46.6273 101.916 46.0699 102.703 46.1468 102.856C46.2237 102.99 46.5889 103.489 46.9541 103.95C47.3193 104.429 47.9344 105.523 48.3188 106.348C48.7224 107.192 49.1837 108.497 49.376 109.226C49.5489 109.974 49.7988 111.394 49.9334 112.391L50.164 114.214C52.4321 117.341 54.0275 119.509 55.1808 121.063C56.3148 122.617 59.2365 126.55 61.6776 129.812C64.0994 133.092 66.1369 135.721 66.1946 135.663C66.2522 135.625 66.5021 134.915 66.7712 134.109L67.271 132.632C65.9639 129.217 64.5031 125.245 63.1768 121.6C61.8506 117.974 59.7554 111.931 58.4868 108.17C57.2375 104.429 55.5652 99.0765 54.7579 96.2754C53.9506 93.4936 53.0664 90.2512 52.7973 89.0809C52.5475 87.9298 52.163 86.0688 51.9516 84.956C51.7594 83.8625 51.4519 81.7137 51.2981 80.2172C51.1443 78.7208 51.0098 77.0133 51.0098 76.4185C51.0098 75.7087 50.9329 75.3825 50.7599 75.3825C50.6446 75.3825 50.0487 75.7278 49.4721 76.1691C48.8954 76.5912 47.7421 77.608 46.9156 78.4138ZM80.0339 82.1933C79.2458 82.8456 76.92 84.5531 74.8826 85.9921C72.8643 87.431 71.1921 88.678 71.1921 88.7548C71.1921 88.8315 71.9033 89.503 72.7682 90.232C73.6524 90.9803 75.6322 92.7645 77.1891 94.2226C79.6687 96.5248 80.0339 96.8126 80.1108 96.4289C80.1492 96.1987 80.6297 94.3953 81.1679 92.4384C81.7061 90.5006 82.4365 87.5077 82.8017 85.8194C83.1669 84.1502 83.5706 81.9631 83.6859 80.9846C83.8205 80.0062 83.8781 79.162 83.8397 79.1237C83.782 79.0661 83.2438 79.4882 82.6095 80.0254C81.9752 80.5818 80.822 81.5602 80.0339 82.1933ZM54.1621 81.848C54.335 82.9799 54.6234 84.5531 54.7771 85.3397C54.9501 86.1455 55.3345 87.8147 55.6421 89.0809C55.9689 90.3663 56.5839 92.6494 57.0068 94.165C57.4297 95.6999 57.8141 96.9853 57.8525 97.0045C57.891 97.0237 58.2177 96.7359 58.5445 96.3522C58.8905 95.9685 60.4282 94.472 61.9659 93.0331C63.5036 91.6134 65.1758 90.0594 65.714 89.6181C66.6367 88.8315 66.6559 88.8123 66.2907 88.5245C66.0792 88.371 64.8299 87.4885 63.5036 86.5676C62.1773 85.6467 60.2744 84.2845 59.2749 83.5363C58.2754 82.8073 56.6416 81.5218 55.6613 80.6969C54.7002 79.8719 53.8353 79.2004 53.7584 79.2004C53.7007 79.2004 53.6815 79.3347 53.7392 79.4882C53.7968 79.6417 53.9891 80.6969 54.1621 81.848ZM66.8865 92.2465C65.3681 93.5319 64.8683 94.0691 64.9644 94.3185C65.0221 94.5104 65.5026 95.604 66.0408 96.7551L67.0019 98.8655L70.8077 98.9614C71.1152 98.1556 71.615 97.062 72.1147 96.026L73.0181 94.1267C71.2305 92.5151 70.3079 91.6901 69.8274 91.2872L68.924 90.5198L66.8865 92.2465ZM38.8043 97.5417L38.6697 98.8655C40.2651 99.23 41.4184 99.6904 42.2641 100.113L43.8018 100.861C45.2049 99.3259 45.6086 98.8079 45.6278 98.7312C45.6278 98.6352 45.474 98.5393 45.301 98.5009C45.1088 98.4626 43.6672 97.8486 42.0719 97.158C40.4957 96.4481 39.1695 95.8917 39.1502 95.8917C39.131 95.8917 39.0734 95.9685 39.0157 96.0644C38.9772 96.1603 38.8811 96.8318 38.8043 97.5417ZM72.9797 100.592C74.5558 108.631 75.0171 111.163 75.0364 111.432C75.0364 111.72 75.094 111.835 75.1901 111.72C75.2862 111.624 76.1512 108.976 77.1123 105.868C78.0925 102.76 78.8806 100.093 78.8806 99.9782C78.8806 99.8439 78.0541 98.9038 77.0546 97.9062C76.0551 96.9086 75.1901 96.0836 75.1517 96.0836C75.1132 96.0836 74.6135 97.1004 74.0368 98.3475L72.9797 100.592ZM58.6983 99.9207C60.5243 105.638 61.37 108.305 61.7545 109.533C62.1389 110.76 62.5233 111.835 62.6002 111.931C62.6771 112.027 62.7347 111.873 62.7347 111.624C62.7347 111.355 63.196 108.804 63.7727 105.964L64.8299 100.784C63.1384 97.2731 62.6002 96.2563 62.5425 96.2754C62.4849 96.2754 61.6007 97.1004 60.582 98.0981L58.6983 99.9207ZM66.9826 103.374C66.8673 104.161 66.233 107.537 65.5795 110.856L64.407 116.9C67.3094 124.919 68.2897 127.605 68.4435 128.027C68.6549 128.584 68.7702 128.718 68.8855 128.507C68.9624 128.353 69.8658 125.974 70.8846 123.231C71.9033 120.487 72.8836 117.897 73.0373 117.475C73.2872 116.842 73.3064 116.516 73.1334 115.749C73.0181 115.211 72.403 112.027 71.7687 108.65C71.1344 105.273 70.5962 102.3 70.577 102.031C70.5193 101.571 70.4617 101.551 68.924 101.494C67.7707 101.456 67.3286 101.494 67.271 101.686C67.2133 101.82 67.098 102.587 66.9826 103.374ZM96.9486 119.49C96.5834 119.758 95.9683 120.353 95.6031 120.833C95.2187 121.312 94.7382 122.176 94.5459 122.751C94.3153 123.423 94.1807 124.286 94.2 125.15C94.2 126.051 94.3537 126.857 94.6613 127.644C94.9496 128.373 95.4109 129.102 95.9683 129.658C96.4488 130.138 97.2754 130.752 97.8136 131.001C98.3325 131.25 99.1206 131.519 99.5435 131.596C99.9663 131.673 100.851 131.653 101.504 131.557C102.158 131.462 103.138 131.174 103.676 130.905C104.195 130.637 105.002 130.061 105.444 129.601C105.906 129.159 106.482 128.353 106.751 127.835C107.155 127.01 107.213 126.608 107.213 124.958C107.232 123.404 107.155 122.866 106.809 122.176C106.598 121.696 106.04 120.89 105.56 120.372C105.079 119.854 104.272 119.24 103.676 118.953C102.869 118.569 102.254 118.435 101.081 118.377C99.9663 118.339 99.2744 118.415 98.5824 118.665C98.0442 118.857 97.3138 119.221 96.9486 119.49ZM116.9 124.651C117.169 124.708 117.496 124.938 117.611 125.15C117.804 125.437 117.9 129.773 117.996 144.143C118.111 158.053 118.092 162.868 117.919 163.175C117.804 163.424 117.535 163.693 117.323 163.808C117.073 163.923 116.708 163.942 116.304 163.808C115.958 163.712 115.612 163.501 115.536 163.329C115.459 163.175 115.324 154.599 115.247 144.258C115.132 128.737 115.151 125.437 115.363 125.15C115.497 124.977 115.805 124.747 116.016 124.67C116.228 124.593 116.631 124.593 116.9 124.651ZM109.539 135.414L110.403 136.277V156.422L109.865 157.458C109.577 158.033 109 158.801 108.577 159.146C108.155 159.511 107.347 159.952 106.79 160.163C105.848 160.527 105.252 160.547 97.6598 160.547C91.0285 160.547 89.3754 160.489 88.6835 160.259C88.2029 160.105 87.3764 159.607 86.8574 159.146C86.2616 158.647 85.7234 157.937 85.4735 157.362C85.0506 156.441 85.0506 156.211 84.9353 136.143L85.3774 135.778C85.8195 135.433 86.3 135.414 109.539 135.414ZM87.5686 147.347C87.6263 155.175 87.6647 156.096 87.953 156.652C88.1453 156.997 88.5489 157.419 88.8757 157.573C89.3562 157.803 90.7594 157.861 97.7559 157.861H106.079C107.213 157.112 107.463 156.748 107.655 156.134C107.828 155.482 107.886 153.237 107.847 146.733L107.809 138.196C89.1063 138.1 87.7032 138.138 87.6071 138.368C87.5686 138.522 87.5494 142.57 87.5686 147.347ZM20.9669 143.663C21.2552 143.663 21.6973 143.779 22.3701 144.239V163.233L21.8319 163.616C21.5436 163.827 21.1015 164 20.8708 164C20.6209 164 20.275 163.77 20.0443 163.463C19.6599 162.964 19.6599 162.695 19.6599 153.678C19.6791 144.68 19.6791 144.412 20.0635 144.047C20.275 143.836 20.6786 143.663 20.9669 143.663ZM56.7761 33.1746C57.5066 33.1746 57.7372 33.2705 58.3331 33.8844C58.7559 34.3065 59.1211 34.9396 59.2557 35.4576C59.3902 35.9565 59.4479 36.6855 59.371 37.1843C59.3134 37.664 59.1019 38.3354 58.9289 38.7C58.7367 39.0645 58.3331 39.5249 58.0255 39.7552C57.6603 40.0046 57.1413 40.1581 56.6608 40.1581C56.2379 40.1581 55.6613 40.0046 55.373 39.8127C55.0847 39.6401 54.6618 39.122 54.4311 38.6616C54.1236 38.1052 53.9891 37.5105 53.9891 36.7047C53.9891 35.8989 54.1236 35.285 54.4119 34.6902C54.6426 34.2106 55.0655 33.6734 55.373 33.5007C55.6613 33.3089 56.2764 33.1554 56.7761 33.1746ZM81.3986 33.1938C81.9368 33.2321 82.4558 33.4048 82.7249 33.635C82.9555 33.8461 83.3207 34.3641 83.5129 34.7861C83.7244 35.2274 83.8589 35.9948 83.8589 36.6088C83.8589 37.2227 83.7244 37.9709 83.5129 38.4314C83.3207 38.8535 82.9555 39.3906 82.6864 39.6401C82.4365 39.8703 81.8983 40.1197 81.4755 40.1772C80.8604 40.254 80.5529 40.1964 80.0339 39.8319C79.6495 39.5825 79.1497 38.9878 78.9191 38.5273C78.6307 37.9326 78.4962 37.3378 78.4962 36.6088C78.4962 35.9756 78.6499 35.2274 78.8806 34.7286C79.092 34.2873 79.5341 33.7501 79.8801 33.5199C80.3414 33.2321 80.7451 33.1554 81.3986 33.1938ZM59.1788 50.9978C59.4479 50.9978 60.1591 51.4007 60.8511 51.9571C61.5046 52.4943 62.6194 53.2233 63.3114 53.5687C63.9841 53.9332 65.0797 54.3553 65.714 54.5088C66.3483 54.6622 67.3478 54.8541 67.9629 54.9117C68.6164 54.9692 69.7505 54.9117 70.75 54.739C71.9417 54.5279 72.9412 54.2018 74.1714 53.607C75.1132 53.1274 76.3434 52.36 76.9008 51.8804C77.5736 51.2856 78.0925 50.9978 78.4385 50.9978C78.7268 50.9978 79.1689 51.1897 79.3996 51.4391C79.6879 51.7077 79.8417 52.0914 79.8417 52.4751C79.8417 52.9931 79.6495 53.2809 78.8229 54.0099C78.2463 54.5088 77.1891 55.2954 76.4587 55.7366C75.7283 56.1779 74.4405 56.7535 73.5948 57.0412C72.749 57.3098 71.4035 57.5976 70.6155 57.7127C69.6736 57.8278 68.5588 57.8278 67.4439 57.6935C66.4829 57.5976 65.2335 57.3674 64.6569 57.1947C64.061 57.0412 62.9846 56.6 62.2542 56.2354C61.5046 55.8517 60.5627 55.3145 60.1399 55.0268C59.717 54.739 58.9866 54.1059 58.5445 53.607C58.1024 53.1274 57.718 52.5902 57.6988 52.4559C57.6988 52.3024 57.9102 51.9187 58.1985 51.5926C58.5061 51.2281 58.9097 50.9978 59.1788 50.9978ZM100.831 121.6C101.235 121.6 101.831 121.715 102.177 121.85C102.523 121.984 103.08 122.444 103.426 122.866C103.83 123.346 104.099 123.902 104.176 124.478C104.253 124.996 104.195 125.61 104.06 126.013C103.926 126.377 103.58 126.934 103.311 127.222C103.023 127.529 102.561 127.893 102.273 128.047C101.985 128.2 101.35 128.315 100.889 128.315C100.408 128.315 99.7741 128.2 99.4858 128.047C99.1975 127.912 98.717 127.509 98.4286 127.183C98.1403 126.857 97.8328 126.301 97.7367 125.955C97.6406 125.61 97.6021 125.073 97.6406 124.766C97.6982 124.44 97.7751 123.998 97.8136 123.749C97.8712 123.519 98.1019 123.058 98.3518 122.732C98.6016 122.387 99.1014 122.003 99.4666 121.869C99.8126 121.735 100.428 121.6 100.831 121.6ZM100.178 124.996C100.197 125.245 100.389 125.514 100.601 125.629C100.812 125.725 101.158 125.783 101.369 125.725C101.619 125.648 101.754 125.456 101.754 125.092C101.754 124.804 101.639 124.459 101.504 124.325C101.369 124.19 101.139 124.094 100.966 124.094C100.812 124.094 100.543 124.19 100.408 124.325C100.255 124.44 100.139 124.747 100.178 124.996Z" fill="#222836"/>
</svg>
