<svg width="24" height="24" viewBox="0 0 24 24" fill="none" xmlns="http://www.w3.org/2000/svg">
<path d="M8.62536 21.1196C7.02536 21.1196 5.66794 20.5622 4.55311 19.4474C3.43828 18.3325 2.88086 16.9751 2.88086 15.3751C2.88086 14.6091 3.02561 13.8766 3.31511 13.1776C3.60461 12.4784 4.02178 11.856 4.56661 11.3104L11.3106 4.56637C11.8559 4.02153 12.478 3.60437 13.1769 3.31487C13.8755 3.02537 14.6084 2.88062 15.3754 2.88062C16.9754 2.88062 18.3328 3.43803 19.4476 4.55287C20.5624 5.6677 21.1199 7.02512 21.1199 8.62512C21.1199 9.39112 20.9751 10.1236 20.6856 10.8226C20.3961 11.5218 19.9789 12.1442 19.4341 12.6899L12.6901 19.4339C12.1448 19.9787 11.5227 20.3959 10.8239 20.6854C10.1252 20.9749 9.39236 21.1196 8.62536 21.1196ZM15.2634 13.6409L17.8376 11.0864C18.1584 10.765 18.4065 10.3904 18.5819 9.96237C18.7572 9.5342 18.8449 9.0882 18.8449 8.62437C18.8449 7.6647 18.5067 6.84662 17.8304 6.17012C17.1539 5.49378 16.3358 5.15562 15.3761 5.15562C14.9123 5.15562 14.4663 5.24328 14.0381 5.41862C13.6101 5.59395 13.2354 5.84203 12.9141 6.16287L10.3596 8.73712L15.2634 13.6409ZM8.62536 18.8446C9.08636 18.8446 9.53153 18.7569 9.96086 18.5816C10.39 18.4063 10.7653 18.1582 11.0866 17.8374L13.6411 15.2631L8.73736 10.3594L6.16311 12.9139C5.84228 13.2352 5.59419 13.6104 5.41886 14.0396C5.24353 14.4689 5.15586 14.9141 5.15586 15.3751C5.15586 16.3353 5.49403 17.1536 6.17036 17.8301C6.84686 18.5064 7.66519 18.8446 8.62536 18.8446Z" fill="#222836"/>
</svg>
