<svg width="22" height="22" viewBox="0 0 22 22" fill="none" xmlns="http://www.w3.org/2000/svg">
<path id="Vector" d="M18.6172 7.12805L18.3706 7.69373C18.1902 8.10786 17.6174 8.10786 17.4369 7.69373L17.1904 7.12805C16.7509 6.11941 15.9593 5.31635 14.9715 4.87702L14.2118 4.53916C13.8011 4.35647 13.8011 3.75875 14.2118 3.57606L14.929 3.25708C15.9422 2.80645 16.748 1.97367 17.1799 0.930767L17.4331 0.319473C17.6096 -0.106572 18.198 -0.106572 18.3744 0.319473L18.6276 0.930767C19.0596 1.97367 19.8654 2.80645 20.8786 3.25708L21.5957 3.57606C22.0065 3.75875 22.0065 4.35647 21.5957 4.53916L20.8361 4.87702C19.8483 5.31635 19.0567 6.11941 18.6172 7.12805ZM4.90381 5.99994C4.90381 3.23852 7.14239 0.999939 9.90381 0.999939C10.8952 0.999939 11.822 1.28951 12.6007 1.78904L11.5208 3.47242C11.0547 3.17343 10.501 2.99994 9.90381 2.99994C8.24691 2.99994 6.90381 4.34309 6.90381 5.99994V11.9999C6.90381 13.6568 8.24691 14.9999 9.90381 14.9999C11.5607 14.9999 12.9038 13.6568 12.9038 11.9999V6.99994H14.9038V11.9999C14.9038 14.7613 12.6652 16.9999 9.90381 16.9999C7.14239 16.9999 4.90381 14.7613 4.90381 11.9999V5.99994ZM0.0961914 13.9616L2.05773 13.5692C2.78702 17.2361 6.02269 20 9.90391 20C13.7851 20 17.0207 17.2362 17.75 13.5692L19.7116 13.9616C18.7999 18.5452 14.7554 22 9.90391 22C5.05239 22 1.00781 18.5452 0.0961914 13.9616Z" fill="#1A73E8"/>
</svg>
