<svg width="183" height="183" viewBox="0 0 183 183" fill="none" xmlns="http://www.w3.org/2000/svg">
<g clip-path="url(#clip0_725_3962)">
<path fill-rule="evenodd" clip-rule="evenodd" d="M60.5454 43.4682C60.1239 43.7258 59.6555 44.1472 59.5384 44.4047C59.3979 44.709 59.3043 49.4381 59.3043 57.1639V69.4548C19.7045 69.4314 18.8849 69.4548 18.3228 69.8763C17.995 70.1104 17.5969 70.6254 17.433 71C17.2222 71.4916 17.1519 72.8261 17.1988 75.9398L17.269 80.2241C18.4399 81.3712 18.838 81.5351 19.9153 81.6288L21.2501 81.7458L21.3672 180.191C13.288 180.167 12.7728 180.214 12.4215 180.589C12.1873 180.823 12 181.291 12 181.642C12 182.064 12.1873 182.415 12.5152 182.649C12.9836 182.953 22.0463 183 92.1596 183C170.938 183 171.242 183 171.71 182.532C171.968 182.274 172.179 181.853 172.179 181.595C172.179 181.338 171.968 180.916 171.71 180.659C171.289 180.237 170.938 180.191 167.144 180.191H163.046V81.6288C164.498 81.6288 165.247 81.4649 165.622 81.2776C165.996 81.0903 166.441 80.7157 166.558 80.4582C166.699 80.2007 166.793 78.0234 166.793 75.4716C166.793 71.5619 166.722 70.9064 166.371 70.4849C166.16 70.204 165.739 69.8528 165.434 69.7124C165.06 69.5251 159.229 69.4548 145.131 69.4548H125.343C125.343 47.4482 125.273 44.99 125.015 44.4515C124.851 44.1003 124.43 43.6321 124.078 43.398C123.516 43.0234 121.596 43 92.3704 43C61.7163 43 61.2948 43 60.522 43.4682H60.5454ZM62.1378 45.8094H122.556V180.191H107.803L107.686 157.833L106.983 155.843C106.609 154.742 105.812 153.127 105.203 152.214C104.618 151.301 103.494 149.99 102.721 149.288C101.948 148.585 100.637 147.672 99.8173 147.274C98.9977 146.853 97.6863 146.338 96.9135 146.104C95.8128 145.753 94.7825 145.659 92.2299 145.659C89.7476 145.659 88.6001 145.776 87.5463 146.104C86.7735 146.338 85.4153 146.9 84.502 147.368C83.6121 147.86 82.2539 148.819 81.4811 149.522C80.7317 150.224 79.6779 151.441 79.1627 152.214C78.6475 152.987 77.9918 154.251 77.6873 155.023C77.4063 155.796 77.0551 157.247 76.9146 158.231C76.7506 159.331 76.657 164.084 76.657 180.191H62.1378V113V45.8094ZM20.2197 72.2642H59.3277V79.0535H20.2197V75.6589V72.2642ZM125.366 72.2642H164.006V79.0535H125.366V75.6589V72.2642ZM24.2008 81.6288L59.2106 81.7458L59.3277 180.191H24.2008V130.91V81.6288ZM125.366 81.6288H160.025L160.142 180.191H125.366V130.91V81.6288ZM88.2488 148.96C88.8811 148.773 89.7008 148.609 90.7077 148.585V180.191H79.7013V169.492C79.7013 159.378 79.7247 158.676 80.1931 157.013C80.4741 155.96 81.0595 154.649 81.645 153.759C82.1836 152.94 83.0969 151.839 83.6823 151.348C84.2678 150.833 85.2514 150.177 85.9071 149.849C86.5393 149.545 87.5931 149.124 88.2488 148.96ZM93.7521 148.585H94.3843C94.759 148.585 95.6255 148.749 96.328 148.96C97.0306 149.171 98.2015 149.686 98.904 150.107C99.6066 150.528 100.754 151.488 101.433 152.237C102.112 153.01 102.979 154.204 103.353 154.906C103.728 155.609 104.196 156.943 104.384 157.833C104.688 159.167 104.758 161.462 104.758 180.191H93.7521V164.388V148.585ZM85.79 51.592C85.4621 51.8027 85.064 52.1538 84.9235 52.3645C84.7127 52.6221 84.6191 54.097 84.6191 57.4682V62.1973H74.6664L73.2614 63.6254C73.1443 72.7793 73.1677 75.6589 73.2379 75.9632C73.3082 76.2441 73.6595 76.7358 74.0107 77.0635L74.6664 77.6722L84.6191 77.6488C84.6191 86.0067 84.6893 86.99 84.9703 87.4348C85.1577 87.7157 85.626 88.1137 86.0241 88.301C86.5862 88.5819 87.8039 88.6522 92.2299 88.6522C97.054 88.6522 97.8268 88.6054 98.4357 88.2542C98.8103 88.0201 99.2787 87.5518 99.4895 87.2007C99.7705 86.6856 99.8407 85.6555 99.8407 82.097V77.6488C107.686 77.6488 109.278 77.5552 109.676 77.3445C110.004 77.1806 110.449 76.689 110.683 76.2441C111.058 75.5184 111.081 74.7926 111.035 69.5017L110.964 63.5552L109.442 62.1973H99.8407C99.8407 55.3144 99.7236 53.0435 99.6066 52.7157C99.466 52.388 99.0211 51.9197 98.5996 51.6622C97.897 51.2408 97.4287 51.194 92.1128 51.194C87.0779 51.194 86.3052 51.2408 85.79 51.592ZM87.4292 54.0033L96.9135 54.1204L97.0306 64.0702L97.6629 64.5385C98.2717 64.9833 98.6464 65.0301 108.037 65.0067V74.8395H103.002C98.2717 74.8395 97.9439 74.8629 97.4989 75.3077C97.054 75.7525 97.0306 76.0803 97.0306 85.6087H87.4292V80.6923C87.4292 76.0803 87.4058 75.7525 86.9609 75.3077C86.5159 74.8629 86.1881 74.8395 75.9544 74.8395V65.0067H81.0361C85.8134 65.0301 86.1881 64.9833 87.4292 64.0702V59.0368V54.0033ZM33.2167 89.9164L32.4439 90.7124L32.397 104.806L34.0363 106.445H49.9839L51.3656 105.04C51.3422 92.5619 51.2719 90.5485 51.0611 90.291C50.8972 90.0803 50.4991 89.7525 50.1947 89.5184C49.6561 89.1672 48.7896 89.1204 41.7876 89.1204H33.9895L33.2167 89.9164ZM37.7129 92.1171C39.0946 92.0702 40.3357 92.0936 40.4294 92.1171C40.5465 92.1639 40.6167 94.7625 40.5933 103.635H35.2072V92.1639L37.7129 92.1171ZM43.3801 92.1873H48.532V103.659H43.3801V97.9231V92.1873ZM134.125 89.4013C133.867 89.5418 133.469 89.893 133.258 90.1739C132.883 90.6187 132.86 91.3913 132.837 97.8528V105.064L134.242 106.468H150.447L151.805 105.064C151.805 92.5619 151.711 90.5719 151.501 90.291C151.36 90.1037 150.962 89.7525 150.634 89.5418C150.119 89.1672 149.253 89.1438 142.321 89.1438C137.169 89.1438 134.452 89.2375 134.125 89.4013ZM135.647 92.1873H140.799V103.659H135.647V97.9231V92.1873ZM143.679 92.1873H148.995V103.659H143.609L143.632 97.9231L143.679 92.1873ZM71.3645 97.5485C71.0835 97.6421 70.6151 98.0167 70.3107 98.3679C69.7487 99 69.7487 99.0468 69.6784 105.836C69.6316 112.344 69.655 112.696 70.0999 113.421C70.3575 113.843 70.8259 114.288 71.1537 114.428C71.505 114.569 74.8069 114.662 79.3032 114.662C85.6495 114.662 86.9374 114.615 87.3824 114.311C87.6634 114.124 88.0615 113.585 88.2488 113.14C88.5299 112.485 88.6001 111.104 88.6001 106C88.6001 100.896 88.5299 99.515 88.2488 98.8595C88.0615 98.3913 87.5931 97.8763 87.195 97.689C86.6096 97.3846 85.2279 97.3378 79.1861 97.3378C75.1582 97.3612 71.6221 97.4548 71.3645 97.5485ZM72.6759 100.147H77.8279V111.853H72.6759V106V100.147ZM80.638 100.147H85.5558V111.853H80.638V106V100.147ZM97.335 97.5719C97.054 97.6656 96.6091 98.0635 96.328 98.4147C95.8597 99.0702 95.8363 99.3746 95.8597 106.047V113.023L97.4989 114.662H112.955L114.477 113.281C114.594 100.592 114.547 99.3278 114.243 98.7425C114.055 98.3445 113.587 97.8763 113.189 97.689C112.604 97.3846 111.222 97.3378 105.18 97.3378C101.152 97.3612 97.616 97.4548 97.335 97.5719ZM98.6933 100.124L101.316 100.194C102.768 100.217 103.915 100.334 103.892 100.428C103.845 100.522 103.822 103.144 103.822 111.853H98.6698V105.977L98.6933 100.124ZM106.866 100.334C106.866 100.217 107.99 100.147 111.807 100.147V111.853H106.772L106.796 106.187C106.819 103.05 106.843 100.428 106.866 100.334ZM33.2401 115.224L32.4673 116.02L32.4205 130.114L34.0597 131.753H49.7966L51.389 130.114V116.067L49.7497 114.428H34.0129L33.2401 115.224ZM35.2306 117.237H40.6167V128.943H35.2306V123.09V117.237ZM43.4269 117.237H48.5788V128.943H43.4269V123.09V117.237ZM133.703 115.224L132.93 116.02L132.883 130.114L134.523 131.753H150.4L151.852 130.348V116.067L150.213 114.428H134.476L133.703 115.224ZM135.694 117.237H140.846V128.943H135.694V123.09V117.237ZM143.656 117.237H146.349C148.316 117.237 149.042 117.308 149.089 117.542C149.136 117.682 149.136 120.328 149.042 128.943H143.656V123.09V117.237ZM71.6455 121.849C71.3879 121.92 70.9664 122.154 70.7322 122.365C70.4746 122.575 70.1468 123.09 69.9594 123.512C69.7252 124.074 69.655 125.759 69.655 130.418C69.6316 134.796 69.7252 136.786 69.936 137.348C70.0999 137.769 70.5449 138.331 70.943 138.565C71.5987 138.987 72.1607 139.01 79.3032 138.963L86.9609 138.893L88.5064 137.371V123.324L86.9609 121.803C75.4626 121.756 71.9031 121.779 71.6455 121.849ZM72.6993 124.729H77.8513V136.201H72.6993V130.465V124.729ZM80.6614 124.729H85.5792V136.201H80.6614V130.465V124.729ZM97.3584 122.013C96.9603 122.201 96.4685 122.599 96.2578 122.903C95.9299 123.371 95.8831 124.378 95.8831 130.418V137.371L97.2413 138.893C109.278 139.01 112.229 138.963 112.791 138.799C113.384 138.628 113.837 138.292 114.149 137.793C114.571 137.067 114.617 136.599 114.617 130.418C114.617 124.987 114.547 123.676 114.266 123.09C114.055 122.692 113.564 122.247 113.095 122.037C112.416 121.756 110.988 121.686 105.18 121.686C99.7471 121.709 97.9205 121.779 97.3584 122.013ZM98.6933 124.729H103.962L103.845 136.201H98.6933V130.465V124.729ZM106.679 124.729H111.807V136.201H106.655V130.465L106.679 124.729ZM33.8958 139.712C33.6148 139.829 33.1698 140.204 32.8888 140.579C32.4205 141.211 32.397 141.515 32.4205 148.211V155.164L34.0597 156.803C48.813 156.803 49.7029 156.756 50.2181 156.405C50.5459 156.194 50.944 155.843 51.0846 155.656C51.2953 155.375 51.3656 153.385 51.389 148.094C51.389 141.187 51.3656 140.86 50.9206 140.415C50.663 140.157 50.1947 139.853 49.8668 139.712C49.5156 139.572 46.2839 139.478 41.8579 139.502C37.7597 139.502 34.1768 139.595 33.8958 139.712ZM35.2306 142.288H40.6167V153.993H35.2306V148.14V142.288ZM43.4269 142.288H48.5788V153.993H43.4269V148.14V142.288ZM134.171 139.829C133.797 140.017 133.328 140.438 133.188 140.766C132.954 141.187 132.883 143.177 132.883 148.14C132.883 153.455 132.954 155.07 133.211 155.585C133.375 155.936 133.797 156.358 134.148 156.522C134.593 156.732 136.818 156.803 142.625 156.803H150.494L151.852 155.398C151.852 143.973 151.758 140.93 151.618 140.649C151.501 140.391 151.079 140.017 150.681 139.829C150.096 139.548 148.691 139.478 142.438 139.478C136.326 139.502 134.733 139.548 134.171 139.829ZM135.694 142.288H140.846V153.993H135.694V148.14V142.288ZM143.679 142.264L149.159 142.405L149.136 144.278C149.112 145.308 149.089 147.906 149.042 153.993H143.656V148.14L143.679 142.264Z" fill="#222836" stroke="#222836" stroke-width="0.23418"/>
</g>
<rect x="1.5" y="1.5" width="180" height="180" rx="18.5" stroke="#222836" stroke-width="3"/>
<defs>
<clipPath id="clip0_725_3962">
<rect width="183" height="183" rx="20" fill="white"/>
</clipPath>
</defs>
</svg>
