<svg width="171" height="146" viewBox="0 0 171 146" fill="none" xmlns="http://www.w3.org/2000/svg">
<path fill-rule="evenodd" clip-rule="evenodd" d="M51.6474 1.28255C51.2005 1.55557 50.704 2.00235 50.5798 2.27537C50.4309 2.59804 50.3316 7.61182 50.3316 15.8027V28.8335C8.34799 28.8087 7.47902 28.8335 6.88316 29.2803C6.53557 29.5285 6.1135 30.0745 5.93971 30.4717C5.71626 30.9929 5.64177 32.4077 5.69143 35.7088L5.76591 40.251C7.0073 41.4672 7.42937 41.641 8.57144 41.7403L9.98662 41.8644L10.1108 146.235C1.54521 146.211 0.999 146.26 0.626585 146.657C0.378309 146.906 0.179688 147.402 0.179688 147.774C0.179688 148.221 0.378309 148.593 0.725896 148.842C1.22245 149.164 10.8308 149.214 85.1648 149.214C168.685 149.214 169.008 149.214 169.504 148.717C169.777 148.444 170.001 147.998 170.001 147.725C170.001 147.452 169.777 147.005 169.504 146.732C169.057 146.285 168.685 146.235 164.663 146.235H160.318V41.7403C161.857 41.7403 162.652 41.5665 163.049 41.368C163.446 41.1694 163.918 40.7723 164.042 40.4992C164.191 40.2262 164.291 37.9179 164.291 35.2124C164.291 31.0674 164.216 30.3724 163.844 29.9256C163.62 29.6278 163.173 29.2555 162.851 29.1065C162.453 28.908 156.271 28.8335 141.325 28.8335H120.346C120.346 5.50206 120.271 2.89589 119.998 2.32502C119.824 1.95271 119.377 1.45629 119.005 1.20808C118.409 0.810954 116.373 0.786133 85.3882 0.786133C52.8888 0.786133 52.4419 0.786133 51.6226 1.28255H51.6474ZM53.3357 3.76462H117.391V146.235H101.75L101.626 122.532L100.881 120.422C100.483 119.255 99.6393 117.543 98.9938 116.575C98.3731 115.607 97.1814 114.217 96.3621 113.472C95.5427 112.727 94.1524 111.759 93.2834 111.337C92.4145 110.891 91.0241 110.345 90.2048 110.096C89.0379 109.724 87.9455 109.625 85.2393 109.625C82.6075 109.625 81.391 109.749 80.2737 110.096C79.4544 110.345 78.0144 110.94 77.0461 111.437C76.1027 111.958 74.6627 112.976 73.8434 113.72C73.0489 114.465 71.9316 115.756 71.3854 116.575C70.8392 117.394 70.1441 118.734 69.8213 119.553C69.5234 120.372 69.1509 121.911 69.002 122.954C68.8282 124.12 68.7289 129.159 68.7289 146.235H53.3357V75V3.76462ZM8.8942 31.812H50.3564V39.01H8.8942V35.411V31.812ZM120.37 31.812H161.336V39.01H120.37V35.411V31.812ZM13.1149 41.7403L50.2323 41.8644L50.3564 146.235H13.1149V93.9878V41.7403ZM120.37 41.7403H157.115L157.239 146.235H120.37V93.9878V41.7403ZM81.0186 113.125C81.6889 112.926 82.5579 112.752 83.6255 112.727V146.235H71.9565V134.892C71.9565 124.17 71.9813 123.425 72.4779 121.663C72.7758 120.546 73.3965 119.156 74.0172 118.213C74.5882 117.344 75.5565 116.178 76.1772 115.656C76.7979 115.11 77.8406 114.415 78.5358 114.068C79.2061 113.745 80.3234 113.298 81.0186 113.125ZM86.8531 112.727H87.5234C87.9207 112.727 88.8393 112.901 89.5841 113.125C90.3289 113.348 91.5703 113.894 92.3152 114.341C93.06 114.788 94.2765 115.805 94.9965 116.599C95.7165 117.419 96.6352 118.684 97.0324 119.429C97.4297 120.174 97.9262 121.588 98.1248 122.532C98.4476 123.946 98.5221 126.379 98.5221 146.235H86.8531V129.481V112.727ZM78.4117 9.89533C78.0641 10.1187 77.642 10.491 77.493 10.7144C77.2696 10.9874 77.1703 12.5511 77.1703 16.1253V21.1391H66.6185L65.1289 22.6532C65.0047 32.3581 65.0295 35.411 65.104 35.7337C65.1785 36.0315 65.5509 36.5527 65.9233 36.9002L66.6185 37.5456L77.1703 37.5208C77.1703 46.3817 77.2448 47.4242 77.5427 47.8958C77.7413 48.1937 78.2379 48.6156 78.6599 48.8142C79.2558 49.112 80.5468 49.1865 85.2393 49.1865C90.3538 49.1865 91.1731 49.1368 91.8186 48.7645C92.2158 48.5163 92.7124 48.0199 92.9358 47.6476C93.2338 47.1015 93.3083 46.0094 93.3083 42.2367V37.5208C101.626 37.5208 103.314 37.4215 103.736 37.1981C104.083 37.0243 104.555 36.5031 104.803 36.0315C105.201 35.2621 105.226 34.4926 105.176 28.8832L105.101 22.5787L103.488 21.1391H93.3083C93.3083 13.8418 93.1841 11.4342 93.06 11.0867C92.911 10.7392 92.4393 10.2428 91.9924 9.96979C91.2476 9.52302 90.751 9.47337 85.1151 9.47337C79.7772 9.47337 78.9579 9.52302 78.4117 9.89533ZM80.1496 12.4519L90.2048 12.576L90.3289 23.1248L90.9993 23.6212C91.6448 24.0928 92.0421 24.1424 101.998 24.1176V34.5423H96.66C91.6448 34.5423 91.2972 34.5671 90.8255 35.0387C90.3538 35.5103 90.3289 35.8578 90.3289 45.9598H80.1496V40.7474C80.1496 35.8578 80.1248 35.5103 79.653 35.0387C79.1813 34.5671 78.8337 34.5423 67.984 34.5423V24.1176H73.3716C78.4365 24.1424 78.8337 24.0928 80.1496 23.1248V17.7883V12.4519ZM22.6736 50.5268L21.8542 51.3707L21.8046 66.3128L23.5425 68.0502H40.4502L41.915 66.561C41.8902 53.3315 41.8157 51.197 41.5922 50.9239C41.4184 50.7005 40.9964 50.3531 40.6736 50.1048C40.1026 49.7325 39.1839 49.6829 31.7605 49.6829H23.4929L22.6736 50.5268ZM27.4405 52.8599C28.9053 52.8103 30.2212 52.8351 30.3205 52.8599C30.4446 52.9096 30.5191 55.6647 30.4943 65.0717H24.7839V52.9096L27.4405 52.8599ZM33.4488 52.9344H38.9108V65.0965H33.4488V59.0155V52.9344ZM129.656 49.9807C129.383 50.1297 128.961 50.502 128.737 50.7998C128.34 51.2714 128.315 52.0905 128.29 58.941V66.5858L129.78 68.075H146.961L148.401 66.5858C148.401 53.3315 148.302 51.2218 148.078 50.9239C147.929 50.7254 147.507 50.3531 147.159 50.1297C146.613 49.7325 145.695 49.7077 138.346 49.7077C132.884 49.7077 130.004 49.807 129.656 49.9807ZM131.27 52.9344H136.732V65.0965H131.27V59.0155V52.9344ZM139.786 52.9344H145.422V65.0965H139.711L139.736 59.0155L139.786 52.9344ZM63.1178 58.6183C62.8199 58.7176 62.3233 59.1148 62.0006 59.4871C61.4047 60.1572 61.4047 60.2069 61.3302 67.4049C61.2806 74.305 61.3054 74.6773 61.7771 75.4468C62.0502 75.8935 62.5468 76.3651 62.8944 76.5141C63.2668 76.663 66.7675 76.7623 71.5344 76.7623C78.2627 76.7623 79.6282 76.7126 80.0999 76.39C80.3979 76.1914 80.8199 75.6205 81.0186 75.1489C81.3165 74.4539 81.391 72.9895 81.391 67.5786C81.391 62.1677 81.3165 60.7033 81.0186 60.0083C80.8199 59.5119 80.3234 58.9658 79.9013 58.7673C79.2806 58.4446 77.8158 58.395 71.4103 58.395C67.1399 58.4198 63.3909 58.5191 63.1178 58.6183ZM64.5082 61.3734H69.9703V73.7838H64.5082V67.5786V61.3734ZM72.9496 61.3734H78.1634V73.7838H72.9496V67.5786V61.3734ZM90.6517 58.6432C90.3538 58.7424 89.882 59.1644 89.5841 59.5367C89.0876 60.2317 89.0627 60.5544 89.0876 67.6283V75.0248L90.8255 76.7623H107.212L108.826 75.2979C108.95 61.845 108.9 60.5047 108.577 59.8842C108.379 59.4622 107.882 58.9658 107.46 58.7673C106.839 58.4446 105.375 58.395 98.969 58.395C94.6986 58.4198 90.9496 58.5191 90.6517 58.6432ZM92.0917 61.3486L94.8724 61.4231C96.4117 61.4479 97.6283 61.572 97.6034 61.6713C97.5538 61.7706 97.529 64.5505 97.529 73.7838H92.0669V67.5538L92.0917 61.3486ZM100.757 61.572C100.757 61.4479 101.948 61.3734 105.995 61.3734V73.7838H100.657L100.682 67.7772C100.707 64.4512 100.732 61.6713 100.757 61.572ZM22.6984 77.358L21.8791 78.2019L21.8294 93.1439L23.5673 94.8814H40.2515L41.9398 93.1439V78.2515L40.2019 76.5141H23.5177L22.6984 77.358ZM24.8087 79.4925H30.5191V91.9029H24.8087V85.6977V79.4925ZM33.4984 79.4925H38.9605V91.9029H33.4984V85.6977V79.4925ZM129.209 77.358L128.39 78.2019L128.34 93.1439L130.078 94.8814H146.911L148.451 93.3921V78.2515L146.713 76.5141H130.028L129.209 77.358ZM131.319 79.4925H136.782V91.9029H131.319V85.6977V79.4925ZM139.761 79.4925H142.616C144.702 79.4925 145.471 79.567 145.521 79.8152C145.57 79.9641 145.57 82.7689 145.471 91.9029H139.761V85.6977V79.4925ZM63.4157 84.3822C63.1426 84.4567 62.6957 84.7049 62.4475 84.9283C62.1744 85.1517 61.8268 85.6977 61.6282 86.1445C61.3799 86.7402 61.3054 88.5273 61.3054 93.4666C61.2806 98.1081 61.3799 100.218 61.6033 100.814C61.7771 101.26 62.2488 101.856 62.6709 102.104C63.3661 102.551 63.962 102.576 71.5344 102.526L79.653 102.452L81.2917 100.838V85.9459L79.653 84.3326C67.4627 84.2829 63.6889 84.3078 63.4157 84.3822ZM64.533 87.4352H69.9951V99.5973H64.533V93.5162V87.4352ZM72.9744 87.4352H78.1882V99.5973H72.9744V93.5162V87.4352ZM90.6765 84.556C90.2545 84.7545 89.7331 85.1765 89.5096 85.4992C89.162 85.9956 89.1124 87.0629 89.1124 93.4666V100.838L90.5524 102.452C103.314 102.576 106.442 102.526 107.038 102.352C107.667 102.17 108.147 101.815 108.478 101.285C108.925 100.516 108.975 100.019 108.975 93.4666C108.975 87.7082 108.9 86.3182 108.602 85.6977C108.379 85.2758 107.857 84.8042 107.361 84.5808C106.641 84.2829 105.126 84.2085 98.969 84.2085C93.2089 84.2333 91.2724 84.3078 90.6765 84.556ZM92.0917 87.4352H97.6779L97.5538 99.5973H92.0917V93.5162V87.4352ZM100.558 87.4352H105.995V99.5973H100.533V93.5162L100.558 87.4352ZM23.3936 103.32C23.0956 103.445 22.6239 103.842 22.326 104.239C21.8294 104.909 21.8046 105.232 21.8294 112.33V119.702L23.5673 121.44C39.2088 121.44 40.1522 121.39 40.6984 121.018C41.046 120.794 41.4681 120.422 41.6171 120.223C41.8405 119.925 41.915 117.816 41.9398 112.206C41.9398 104.884 41.915 104.537 41.4433 104.065C41.1702 103.792 40.6736 103.469 40.326 103.32C39.9536 103.171 36.5274 103.072 31.835 103.097C27.4901 103.097 23.6915 103.196 23.3936 103.32ZM24.8087 106.051H30.5191V118.461H24.8087V112.256V106.051ZM33.4984 106.051H38.9605V118.461H33.4984V112.256V106.051ZM129.706 103.445C129.308 103.643 128.812 104.09 128.663 104.437C128.415 104.884 128.34 106.994 128.34 112.256C128.34 117.89 128.415 119.603 128.688 120.149C128.861 120.521 129.308 120.968 129.681 121.142C130.153 121.365 132.511 121.44 138.668 121.44H147.01L148.451 119.95C148.451 107.838 148.351 104.611 148.202 104.313C148.078 104.04 147.631 103.643 147.209 103.445C146.588 103.147 145.099 103.072 138.47 103.072C131.99 103.097 130.301 103.147 129.706 103.445ZM131.319 106.051H136.782V118.461H131.319V112.256V106.051ZM139.786 106.026L145.595 106.175L145.57 108.16C145.546 109.253 145.521 112.008 145.471 118.461H139.761V112.256L139.786 106.026Z" fill="#1A73E8" stroke="#1A73E8" stroke-width="0.23418"/>
</svg>
