<svg width="162" height="141" viewBox="0 0 162 141" fill="none" xmlns="http://www.w3.org/2000/svg">
<path fill-rule="evenodd" clip-rule="evenodd" d="M49.5454 1.46823C49.1239 1.72575 48.6555 2.14716 48.5384 2.40468C48.3979 2.70903 48.3043 7.43813 48.3043 15.1639V27.4548C8.7045 27.4314 7.88488 27.4548 7.32285 27.8763C6.995 28.1104 6.59689 28.6254 6.43296 29C6.2222 29.4916 6.15195 30.8261 6.19878 33.9398L6.26904 38.2241C7.43994 39.3712 7.83804 39.5351 8.91527 39.6288L10.2501 39.7458L10.3672 138.191C2.28799 138.167 1.77279 138.214 1.42152 138.589C1.18734 138.823 1 139.291 1 139.642C1 140.064 1.18734 140.415 1.51519 140.649C1.98355 140.953 11.0463 141 81.1596 141C159.938 141 160.242 141 160.71 140.532C160.968 140.274 161.179 139.853 161.179 139.595C161.179 139.338 160.968 138.916 160.71 138.659C160.289 138.237 159.938 138.191 156.144 138.191H152.046V39.6288C153.498 39.6288 154.247 39.4649 154.622 39.2776C154.996 39.0903 155.441 38.7157 155.558 38.4582C155.699 38.2007 155.793 36.0234 155.793 33.4716C155.793 29.5619 155.722 28.9064 155.371 28.4849C155.16 28.204 154.739 27.8528 154.434 27.7124C154.06 27.5251 148.229 27.4548 134.131 27.4548H114.343C114.343 5.44816 114.273 2.98997 114.015 2.4515C113.851 2.10033 113.43 1.63211 113.078 1.39799C112.516 1.02341 110.596 1 81.3704 1C50.7163 1 50.2948 1 49.522 1.46823H49.5454ZM51.1378 3.80936H111.556V138.191H96.8028L96.6857 115.833L95.9832 113.843C95.6085 112.742 94.8123 111.127 94.2034 110.214C93.618 109.301 92.4939 107.99 91.7211 107.288C90.9483 106.585 89.6369 105.672 88.8173 105.274C87.9977 104.853 86.6863 104.338 85.9135 104.104C84.8128 103.753 83.7825 103.659 81.2299 103.659C78.7476 103.659 77.6001 103.776 76.5463 104.104C75.7735 104.338 74.4153 104.9 73.502 105.368C72.6121 105.86 71.2539 106.819 70.4811 107.522C69.7317 108.224 68.6779 109.441 68.1627 110.214C67.6475 110.987 66.9918 112.251 66.6873 113.023C66.4063 113.796 66.0551 115.247 65.9146 116.231C65.7506 117.331 65.657 122.084 65.657 138.191H51.1378V71V3.80936ZM9.2197 30.2642H48.3277V37.0535H9.2197V33.6589V30.2642ZM114.366 30.2642H153.006V37.0535H114.366V33.6589V30.2642ZM13.2008 39.6288L48.2106 39.7458L48.3277 138.191H13.2008V88.9097V39.6288ZM114.366 39.6288H149.025L149.142 138.191H114.366V88.9097V39.6288ZM77.2488 106.96C77.8811 106.773 78.7008 106.609 79.7077 106.585V138.191H68.7013V127.492C68.7013 117.378 68.7247 116.676 69.1931 115.013C69.4741 113.96 70.0595 112.649 70.645 111.759C71.1836 110.94 72.0969 109.839 72.6823 109.348C73.2678 108.833 74.2514 108.177 74.9071 107.849C75.5393 107.545 76.5931 107.124 77.2488 106.96ZM82.7521 106.585H83.3843C83.759 106.585 84.6255 106.749 85.328 106.96C86.0306 107.171 87.2015 107.686 87.904 108.107C88.6066 108.528 89.754 109.488 90.4332 110.237C91.1123 111.01 91.9787 112.204 92.3534 112.906C92.7281 113.609 93.1965 114.943 93.3838 115.833C93.6882 117.167 93.7585 119.462 93.7585 138.191H82.7521V122.388V106.585ZM74.79 9.59197C74.4621 9.80268 74.064 10.1538 73.9235 10.3645C73.7127 10.6221 73.6191 12.097 73.6191 15.4682V20.1973H63.6664L62.2614 21.6254C62.1443 30.7793 62.1677 33.6589 62.2379 33.9632C62.3082 34.2441 62.6595 34.7358 63.0107 35.0635L63.6664 35.6722L73.6191 35.6488C73.6191 44.0067 73.6893 44.99 73.9703 45.4348C74.1577 45.7157 74.626 46.1137 75.0241 46.301C75.5862 46.5819 76.8039 46.6522 81.2299 46.6522C86.054 46.6522 86.8268 46.6054 87.4357 46.2542C87.8103 46.0201 88.2787 45.5518 88.4895 45.2007C88.7705 44.6856 88.8407 43.6555 88.8407 40.097V35.6488C96.6857 35.6488 98.2782 35.5552 98.6763 35.3445C99.0041 35.1806 99.4491 34.689 99.6832 34.2441C100.058 33.5184 100.081 32.7926 100.035 27.5017L99.9643 21.5552L98.4421 20.1973H88.8407C88.8407 13.3144 88.7236 11.0435 88.6066 10.7157C88.466 10.388 88.0211 9.91973 87.5996 9.66221C86.897 9.2408 86.4287 9.19398 81.1128 9.19398C76.0779 9.19398 75.3052 9.2408 74.79 9.59197ZM76.4292 12.0033L85.9135 12.1204L86.0306 22.0702L86.6629 22.5385C87.2717 22.9833 87.6464 23.0301 97.037 23.0067V32.8395H92.0022C87.2717 32.8395 86.9439 32.8629 86.4989 33.3077C86.054 33.7525 86.0306 34.0803 86.0306 43.6087H76.4292V38.6923C76.4292 34.0803 76.4058 33.7525 75.9609 33.3077C75.5159 32.8629 75.1881 32.8395 64.9544 32.8395V23.0067H70.0361C74.8134 23.0301 75.1881 22.9833 76.4292 22.0702V17.0368V12.0033ZM22.2167 47.9164L21.4439 48.7124L21.397 62.806L23.0363 64.4448H38.9839L40.3656 63.0401C40.3422 50.5619 40.2719 48.5485 40.0611 48.291C39.8972 48.0803 39.4991 47.7525 39.1947 47.5184C38.6561 47.1672 37.7896 47.1204 30.7876 47.1204H22.9895L22.2167 47.9164ZM26.7129 50.1171C28.0946 50.0702 29.3357 50.0936 29.4294 50.1171C29.5465 50.1639 29.6167 52.7625 29.5933 61.6355H24.2072V50.1639L26.7129 50.1171ZM32.3801 50.1873H37.532V61.6589H32.3801V55.9231V50.1873ZM123.125 47.4013C122.867 47.5418 122.469 47.893 122.258 48.1739C121.883 48.6187 121.86 49.3913 121.837 55.8528V63.0635L123.242 64.4682H139.447L140.805 63.0635C140.805 50.5619 140.711 48.5719 140.501 48.291C140.36 48.1037 139.962 47.7525 139.634 47.5418C139.119 47.1672 138.253 47.1438 131.321 47.1438C126.169 47.1438 123.452 47.2375 123.125 47.4013ZM124.647 50.1873H129.799V61.6589H124.647V55.9231V50.1873ZM132.679 50.1873H137.995V61.6589H132.609L132.632 55.9231L132.679 50.1873ZM60.3645 55.5485C60.0835 55.6421 59.6151 56.0167 59.3107 56.3679C58.7487 57 58.7487 57.0468 58.6784 63.8361C58.6316 70.3445 58.655 70.6956 59.0999 71.4214C59.3575 71.8428 59.8259 72.2876 60.1537 72.4281C60.505 72.5686 63.8069 72.6622 68.3032 72.6622C74.6495 72.6622 75.9374 72.6154 76.3824 72.311C76.6634 72.1237 77.0615 71.5853 77.2488 71.1405C77.5299 70.4849 77.6001 69.1037 77.6001 64C77.6001 58.8963 77.5299 57.515 77.2488 56.8595C77.0615 56.3913 76.5931 55.8763 76.195 55.689C75.6096 55.3846 74.2279 55.3378 68.1861 55.3378C64.1582 55.3612 60.6221 55.4548 60.3645 55.5485ZM61.6759 58.1472H66.8279V69.8528H61.6759V64V58.1472ZM69.638 58.1472H74.5558V69.8528H69.638V64V58.1472ZM86.335 55.5719C86.054 55.6656 85.6091 56.0635 85.328 56.4147C84.8597 57.0702 84.8363 57.3746 84.8597 64.0468V71.0234L86.4989 72.6622H101.955L103.477 71.2809C103.594 58.592 103.547 57.3278 103.243 56.7425C103.055 56.3445 102.587 55.8763 102.189 55.689C101.604 55.3846 100.222 55.3378 94.18 55.3378C90.1521 55.3612 86.616 55.4548 86.335 55.5719ZM87.6933 58.1237L90.3161 58.194C91.768 58.2174 92.9155 58.3344 92.892 58.4281C92.8452 58.5217 92.8218 61.1438 92.8218 69.8528H87.6698V63.9766L87.6933 58.1237ZM95.8661 58.3344C95.8661 58.2174 96.9902 58.1472 100.807 58.1472V69.8528H95.7724L95.7959 64.1873C95.8193 61.0502 95.8427 58.4281 95.8661 58.3344ZM22.2401 73.2241L21.4673 74.0201L21.4205 88.1137L23.0597 89.7525H38.7966L40.389 88.1137V74.0669L38.7497 72.4281H23.0129L22.2401 73.2241ZM24.2306 75.2375H29.6167V86.9431H24.2306V81.0903V75.2375ZM32.4269 75.2375H37.5788V86.9431H32.4269V81.0903V75.2375ZM122.703 73.2241L121.93 74.0201L121.883 88.1137L123.523 89.7525H139.4L140.852 88.3478V74.0669L139.213 72.4281H123.476L122.703 73.2241ZM124.694 75.2375H129.846V86.9431H124.694V81.0903V75.2375ZM132.656 75.2375H135.349C137.316 75.2375 138.042 75.3077 138.089 75.5418C138.136 75.6823 138.136 78.3278 138.042 86.9431H132.656V81.0903V75.2375ZM60.6455 79.8495C60.3879 79.9197 59.9664 80.1538 59.7322 80.3645C59.4746 80.5752 59.1468 81.0903 58.9594 81.5117C58.7252 82.0736 58.655 83.7592 58.655 88.4181C58.6316 92.796 58.7252 94.7859 58.936 95.3478C59.0999 95.7692 59.5449 96.3311 59.943 96.5652C60.5987 96.9866 61.1607 97.01 68.3032 96.9632L75.9609 96.893L77.5064 95.3712V81.3244L75.9609 79.8027C64.4626 79.7559 60.9031 79.7793 60.6455 79.8495ZM61.6993 82.7291H66.8513V94.2007H61.6993V88.4649V82.7291ZM69.6614 82.7291H74.5792V94.2007H69.6614V88.4649V82.7291ZM86.3584 80.0134C85.9603 80.2007 85.4685 80.5987 85.2578 80.903C84.9299 81.3712 84.8831 82.3779 84.8831 88.4181V95.3712L86.2413 96.893C98.2782 97.01 101.229 96.9632 101.791 96.7993C102.384 96.6276 102.837 96.2921 103.149 95.7926C103.571 95.0669 103.617 94.5987 103.617 88.4181C103.617 82.9866 103.547 81.6756 103.266 81.0903C103.055 80.6923 102.564 80.2475 102.095 80.0368C101.416 79.7559 99.9877 79.6856 94.18 79.6856C88.7471 79.709 86.9205 79.7793 86.3584 80.0134ZM87.6933 82.7291H92.9623L92.8452 94.2007H87.6933V88.4649V82.7291ZM95.6788 82.7291H100.807V94.2007H95.6554V88.4649L95.6788 82.7291ZM22.8958 97.7124C22.6148 97.8294 22.1698 98.204 21.8888 98.5786C21.4205 99.2107 21.397 99.515 21.4205 106.211V113.164L23.0597 114.803C37.813 114.803 38.7029 114.756 39.2181 114.405C39.5459 114.194 39.944 113.843 40.0846 113.656C40.2953 113.375 40.3656 111.385 40.389 106.094C40.389 99.1873 40.3656 98.8595 39.9206 98.4147C39.663 98.1572 39.1947 97.8528 38.8668 97.7124C38.5156 97.5719 35.2839 97.4783 30.8579 97.5017C26.7597 97.5017 23.1768 97.5953 22.8958 97.7124ZM24.2306 100.288H29.6167V111.993H24.2306V106.14V100.288ZM32.4269 100.288H37.5788V111.993H32.4269V106.14V100.288ZM123.171 97.8294C122.797 98.0167 122.328 98.4381 122.188 98.7659C121.954 99.1873 121.883 101.177 121.883 106.14C121.883 111.455 121.954 113.07 122.211 113.585C122.375 113.936 122.797 114.358 123.148 114.522C123.593 114.732 125.818 114.803 131.625 114.803H139.494L140.852 113.398C140.852 101.973 140.758 98.9298 140.618 98.6488C140.501 98.3913 140.079 98.0167 139.681 97.8294C139.096 97.5485 137.691 97.4783 131.438 97.4783C125.326 97.5017 123.733 97.5485 123.171 97.8294ZM124.694 100.288H129.846V111.993H124.694V106.14V100.288ZM132.679 100.264L138.159 100.405L138.136 102.278C138.112 103.308 138.089 105.906 138.042 111.993H132.656V106.14L132.679 100.264Z" fill="#222836" stroke="#222836" stroke-width="0.23418"/>
</svg>
