<svg width="24" height="24" viewBox="0 0 24 24" fill="none" xmlns="http://www.w3.org/2000/svg">
<path d="M8.00012 11.9999V9.99988H16.0001V11.9999H8.00012ZM8.00012 7.99988V5.99988H16.0001V7.99988H8.00012ZM6.07187 13.8624H13.3806C13.8856 13.8624 14.3558 13.9712 14.7911 14.1889C15.2265 14.4065 15.5921 14.7156 15.8881 15.1161L17.9284 17.7824V4.07163H6.07187V13.8624ZM6.07187 19.9281H16.7034L14.0979 16.5086C14.011 16.3921 13.906 16.3011 13.7826 16.2356C13.6595 16.1701 13.5255 16.1374 13.3806 16.1374H6.07187V19.9281ZM17.9284 22.2031H6.07187C5.44221 22.2031 4.90562 21.9814 4.46212 21.5379C4.01863 21.0944 3.79688 20.5578 3.79688 19.9281V4.07163C3.79688 3.44196 4.01863 2.90538 4.46212 2.46188C4.90562 2.01838 5.44221 1.79663 6.07187 1.79663H17.9284C18.558 1.79663 19.0946 2.01838 19.5381 2.46188C19.9816 2.90538 20.2034 3.44196 20.2034 4.07163V19.9281C20.2034 20.5578 19.9816 21.0944 19.5381 21.5379C19.0946 21.9814 18.558 22.2031 17.9284 22.2031Z" fill="#222836"/>
</svg>
