<svg width="24" height="24" viewBox="0 0 24 24" fill="none" xmlns="http://www.w3.org/2000/svg">
<path d="M5.07187 4.07163V10.0189V9.99988V19.9281V4.07163ZM7.00013 14.0179H10.5359C10.7019 13.6145 10.9029 13.2392 11.1389 12.8919C11.3747 12.5445 11.647 12.2233 11.9556 11.9281H7.00013V14.0179ZM7.00013 18.0179H10.1451C10.0698 17.6685 10.0226 17.3192 10.0036 16.9699C9.98463 16.6207 9.99779 16.2735 10.0431 15.9281H7.00013V18.0179ZM5.07187 22.2031C4.44221 22.2031 3.90562 21.9814 3.46212 21.5379C3.01862 21.0944 2.79688 20.5578 2.79688 19.9281V4.07163C2.79688 3.44196 3.01862 2.90538 3.46212 2.46188C3.90562 2.01838 4.44221 1.79663 5.07187 1.79663H13.0839L19.2034 7.91613V10.5179C18.8429 10.3645 18.472 10.2474 18.0909 10.1664C17.7097 10.0854 17.3222 10.0362 16.9284 10.0189V9.07163H11.9284V4.07163H5.07187V19.9281H10.8936C11.1563 20.384 11.4653 20.8066 11.8206 21.1961C12.1758 21.5856 12.5713 21.9213 13.0071 22.2031H5.07187ZM16.6301 18.9999C17.2913 18.9999 17.8506 18.7716 18.3081 18.3151C18.7655 17.8586 18.9941 17.2999 18.9941 16.6389C18.9941 15.9777 18.7659 15.4185 18.3094 14.9611C17.8529 14.5036 17.2941 14.2749 16.6331 14.2749C15.972 14.2749 15.4127 14.5031 14.9554 14.9596C14.4979 15.4161 14.2691 15.9749 14.2691 16.6359C14.2691 17.297 14.4974 17.8563 14.9539 18.3136C15.4104 18.7711 15.9691 18.9999 16.6301 18.9999ZM21.7316 23.3346L19.0076 20.6109C18.6576 20.8322 18.2811 20.9982 17.8781 21.1089C17.475 21.2195 17.0595 21.2749 16.6316 21.2749C15.3435 21.2749 14.2485 20.824 13.3469 19.9224C12.445 19.0205 11.9941 17.9255 11.9941 16.6374C11.9941 15.3492 12.445 14.2542 13.3469 13.3524C14.2485 12.4507 15.3435 11.9999 16.6316 11.9999C17.9198 11.9999 19.0148 12.4507 19.9166 13.3524C20.8183 14.2542 21.2691 15.3492 21.2691 16.6374C21.2691 17.0652 21.2138 17.4807 21.1031 17.8839C20.9925 18.2869 20.8265 18.6634 20.6051 19.0134L23.3289 21.7374L21.7316 23.3346Z" fill="#222836"/>
</svg>
