<svg width="24" height="24" viewBox="0 0 24 24" fill="none" xmlns="http://www.w3.org/2000/svg">
<path d="M3.75084 11.2528C3.54368 11.0315 3.44009 10.7687 3.44009 10.4646C3.44009 10.1604 3.54368 9.89831 3.75084 9.67831L6.50909 6.92006L5.49984 5.91081L5.19384 6.22281C4.97251 6.44281 4.70976 6.55281 4.40559 6.55281C4.10143 6.55281 3.83934 6.44281 3.61934 6.22281C3.41218 6.01565 3.30859 5.7564 3.30859 5.44506C3.30859 5.1339 3.41218 4.87473 3.61934 4.66756L5.78684 2.49406C6.00801 2.27406 6.27076 2.16406 6.57509 2.16406C6.87926 2.16406 7.14126 2.27406 7.36109 2.49406C7.56843 2.7014 7.67209 2.96065 7.67209 3.27181C7.67209 3.58298 7.56843 3.84223 7.36109 4.04956L7.04934 4.36156L8.05859 5.37081L10.8226 2.60656C11.0439 2.38673 11.3067 2.27681 11.6108 2.27681C11.915 2.27681 12.1771 2.38673 12.3971 2.60656C12.6171 2.82656 12.7271 3.08865 12.7271 3.39281C12.7271 3.69698 12.6171 3.95973 12.3971 4.18106L11.7938 4.75931L19.0253 11.9908C19.4645 12.43 19.6841 12.9656 19.6841 13.5976C19.6841 14.2297 19.4645 14.7653 19.0253 15.2043L18.4808 15.7621L23.3073 20.5696H20.1586L16.9063 17.3176L16.3678 17.8811C15.9287 18.3202 15.393 18.5398 14.7608 18.5398C14.1288 18.5398 13.5933 18.3202 13.1541 17.8811L5.92259 10.6496L5.32534 11.2528C5.10401 11.46 4.84126 11.5636 4.53709 11.5636C4.23293 11.5636 3.97084 11.46 3.75084 11.2528ZM7.47809 9.10006L14.7453 16.3676L17.4928 13.6071L16.0943 12.1898L14.8498 13.4403C14.6298 13.6475 14.3674 13.7542 14.0626 13.7606C13.7578 13.7669 13.5017 13.6665 13.2943 13.4593C13.0745 13.238 12.9646 12.9752 12.9646 12.6711C12.9646 12.3669 13.0745 12.1048 13.2943 11.8848L14.5388 10.6343L13.2303 9.32556L11.9796 10.5701C11.7584 10.7774 11.4958 10.8811 11.1916 10.8811C10.8873 10.8811 10.6252 10.7774 10.4053 10.5701C10.198 10.3489 10.0943 10.0862 10.0943 9.78206C10.0943 9.47773 10.198 9.21565 10.4053 8.99581L11.6558 7.75106L10.2383 6.33381L7.47809 9.10006Z" fill="#222836"/>
</svg>
