<svg width="24" height="24" viewBox="0 0 24 24" fill="none" xmlns="http://www.w3.org/2000/svg">
<path d="M4.07187 22.2032C3.44221 22.2032 2.90563 21.9814 2.46213 21.5379C2.01863 21.0944 1.79688 20.5578 1.79688 19.9282V8.16743C1.79688 7.5376 2.01863 7.00093 2.46213 6.55743C2.90563 6.1141 3.44221 5.89243 4.07187 5.89243H7.81488V3.89243C7.81488 3.2626 8.03663 2.72593 8.48013 2.28243C8.92346 1.8391 9.46004 1.61743 10.0899 1.61743H13.9104C14.5402 1.61743 15.0768 1.8391 15.5201 2.28243C15.9636 2.72593 16.1854 3.2626 16.1854 3.89243V5.89243H19.9284C20.558 5.89243 21.0946 6.1141 21.5381 6.55743C21.9816 7.00093 22.2034 7.5376 22.2034 8.16743V19.9282C22.2034 20.5578 21.9816 21.0944 21.5381 21.5379C21.0946 21.9814 20.558 22.2032 19.9284 22.2032H4.07187ZM4.07187 19.9282H19.9284V8.16743H4.07187V19.9282ZM10.0899 5.89243H13.9104V3.89243H10.0899V5.89243ZM10.8626 15.1852V18.1852H13.1376V15.1852H16.1376V12.9102H13.1376V9.91018H10.8626V12.9102H7.86263V15.1852H10.8626Z" fill="#222836"/>
</svg>
