<svg width="24" height="24" viewBox="0 0 24 24" fill="none" xmlns="http://www.w3.org/2000/svg">
<path d="M7.49362 2.79077C8.35612 2.79077 9.17704 2.9661 9.95638 3.31677C10.7359 3.6676 11.415 4.16636 11.9936 4.81302C12.5723 4.16636 13.2514 3.6676 14.0309 3.31677C14.8104 2.9661 15.6313 2.79077 16.4936 2.79077C18.1216 2.79077 19.4811 3.33577 20.5721 4.42577C21.6633 5.51561 22.2089 6.87369 22.2089 8.50002C22.2089 8.57035 22.2057 8.64077 22.1994 8.71127C22.193 8.78161 22.1899 8.85194 22.1899 8.92227H19.9149C19.9275 8.85194 19.9339 8.78161 19.9339 8.71127V8.50002C19.9339 7.51602 19.6065 6.6976 18.9519 6.04477C18.297 5.3921 17.4786 5.06577 16.4966 5.06577C15.7273 5.06577 15.0133 5.2866 14.3546 5.72827C13.6958 6.16994 13.2414 6.73244 12.9914 7.41577H11.0019C10.7537 6.73244 10.2988 6.16994 9.63712 5.72827C8.97546 5.2866 8.26154 5.06577 7.49538 5.06577C6.51704 5.06577 5.70179 5.3921 5.04963 6.04477C4.39746 6.6976 4.07137 7.51602 4.07137 8.50002V8.71127C4.07137 8.78161 4.07771 8.85194 4.09038 8.92227H1.80938C1.80938 8.85094 1.80621 8.78027 1.79988 8.71027C1.79354 8.6401 1.79037 8.57002 1.79037 8.50002C1.79037 6.87369 2.33479 5.51561 3.42363 4.42577C4.51246 3.33577 5.86912 2.79077 7.49362 2.79077ZM5.08438 15.0778H8.26713C8.77646 15.5744 9.33588 16.1089 9.94538 16.681C10.5547 17.2532 11.2375 17.8796 11.9936 18.5603C12.7498 17.8796 13.4326 17.2532 14.0421 16.681C14.6515 16.1089 15.2109 15.5744 15.7204 15.0778H18.9219C18.281 15.7873 17.5222 16.5559 16.6454 17.3838C15.7685 18.2116 14.7471 19.1502 13.5811 20.1995L11.9936 21.625L10.4061 20.1995C9.24013 19.1507 8.22204 18.2119 7.35188 17.383C6.48154 16.5542 5.72571 15.7858 5.08438 15.0778ZM11.1094 15.8385C11.342 15.8385 11.5485 15.7721 11.7286 15.6393C11.909 15.5063 12.0345 15.3298 12.1051 15.1098L13.3056 11.4893L14.1446 12.6398C14.244 12.7731 14.3725 12.8794 14.5301 12.9588C14.6878 13.0381 14.8543 13.0778 15.0296 13.0778H23.0774V10.9223H15.5806L13.8796 8.62927C13.7636 8.47144 13.6207 8.35202 13.4509 8.27102C13.2812 8.19002 13.098 8.14952 12.9014 8.14952C12.669 8.14952 12.4637 8.21602 12.2854 8.34902C12.1072 8.48186 11.9828 8.65827 11.9121 8.87827L10.7116 12.468L9.92137 11.3603C9.82204 11.2269 9.69354 11.1206 9.53588 11.0413C9.37821 10.9619 9.21179 10.9223 9.03663 10.9223H0.921875V13.0778H8.43663L10.1196 15.3588C10.2316 15.5168 10.3744 15.6362 10.5479 15.717C10.7214 15.798 10.9085 15.8385 11.1094 15.8385Z" fill="#222836"/>
</svg>
